<svg width="60" height="55" viewBox="0 0 60 55" fill="none" xmlns="http://www.w3.org/2000/svg">
<path d="M46.5 35.9985C42.3645 35.9985 39 32.634 39 28.4985C39 24.363 42.3645 20.9985 46.5 20.9985C50.6355 20.9985 54 24.363 54 28.4985C54 32.634 50.6355 35.9985 46.5 35.9985ZM46.5 54.0015C38.8035 54.0015 33 50.097 33 44.922V43.578C33 41.052 35.0535 38.9985 37.578 38.9985H55.422C57.9465 38.9985 60 41.052 60 43.578V44.922C60 50.097 54.1965 54.0015 46.5 54.0015ZM30 15C25.8645 15 22.5 11.6355 22.5 7.5C22.5 3.3645 25.8645 0 30 0C34.1355 0 37.5 3.3645 37.5 7.5C37.5 11.6355 34.1355 15 30 15ZM13.5 35.9985C9.3645 35.9985 6 32.634 6 28.4985C6 24.363 9.3645 20.9985 13.5 20.9985C17.6355 20.9985 21 24.363 21 28.4985C21 32.634 17.6355 35.9985 13.5 35.9985ZM13.5 54.0015C5.8035 54.0015 0 50.097 0 44.922V43.578C0 41.052 2.0535 38.9985 4.578 38.9985H22.422C24.9465 38.9985 27 41.052 27 43.578V44.922C27 50.097 21.1965 54.0015 13.5 54.0015ZM41.8575 19.095C41.061 18.4215 40.0455 18 38.922 18H21.078C19.956 18 18.939 18.4215 18.1425 19.095C21.606 20.8125 24 24.3765 24 28.4985C24 29.6985 23.7885 30.846 23.415 31.9215C25.341 32.613 27.576 33.0015 30 33.0015C32.424 33.0015 34.659 32.613 36.585 31.9215C36.2115 30.846 36 29.6985 36 28.4985C36 24.3765 38.394 20.8125 41.8575 19.095Z" fill="white"/>
</svg>
