<svg width="50" height="63" viewBox="0 0 50 63" fill="none" xmlns="http://www.w3.org/2000/svg">
<path d="M2.1378 0.962524C0.549751 0.962524 -0.482482 2.63814 0.229087 4.05822L10.6077 24.8155C6.33831 28.6879 3.6505 34.2743 3.62302 40.5624C3.5711 52.0879 13.1649 61.8796 24.6904 62.0354C36.7444 62.2003 46.3782 52.678 46.3782 40.6638C46.3782 34.3329 43.6873 28.7093 39.3935 24.8155L49.7721 4.05822C50.4807 2.63814 49.4515 0.962524 47.8634 0.962524H36.0473C34.8899 0.962524 33.8375 1.61526 33.3214 2.65054L25.0006 19.2862L16.6798 2.65054C16.1637 1.61526 15.1114 0.962524 13.9539 0.962524H2.1378ZM25.0006 25.3941C33.5516 25.3941 40.2703 32.1127 40.2703 40.6638C40.2703 49.2148 33.5516 55.9335 25.0006 55.9335C16.4496 55.9335 9.7309 49.2148 9.7309 40.6638C9.7309 32.1127 16.4496 25.3941 25.0006 25.3941ZM25.0006 31.5019C24.6952 32.4181 23.1682 35.1643 20.4197 35.1643V38.2182H23.7778V49.8256H27.7504H28.0546V31.5019H25.0006Z" fill="white"/>
</svg>
