<svg width="50" height="50" viewBox="0 0 50 50" fill="none" xmlns="http://www.w3.org/2000/svg">
<path d="M47.1227 0.00110307C47.0202 0.00447021 46.918 0.0135141 46.8166 0.0281931H36.0808C35.7132 0.0229944 35.3483 0.090906 35.0071 0.227981C34.666 0.365055 34.3556 0.568559 34.0938 0.826666C33.832 1.08477 33.6241 1.39234 33.4822 1.73148C33.3404 2.07062 33.2673 2.43458 33.2673 2.80221C33.2673 3.16984 33.3404 3.5338 33.4822 3.87294C33.6241 4.21208 33.832 4.51965 34.0938 4.77775C34.3556 5.03586 34.666 5.23936 35.0071 5.37644C35.3483 5.51351 35.7132 5.58143 36.0808 5.57623H40.4802L33.5452 12.5113H29.1458C28.6668 12.5113 28.196 12.6353 27.7792 12.8712C27.3624 13.1072 27.0138 13.447 26.7673 13.8576L23.4135 19.4463H18.0497C17.5707 19.4463 17.1 19.5703 16.6832 19.8063C16.2663 20.0422 15.9177 20.382 15.6712 20.7927L12.3175 26.3814H6.95364C6.47468 26.3814 6.00389 26.5054 5.58708 26.7413C5.17028 26.9773 4.82165 27.3171 4.57513 27.7277L0.414109 34.6628C0.221046 34.9753 0.0919609 35.323 0.0343432 35.6858C-0.0232745 36.0485 -0.00827782 36.4191 0.078463 36.7761C0.165204 37.133 0.321962 37.4691 0.539642 37.765C0.757322 38.0609 1.03159 38.3106 1.34653 38.4996C1.66148 38.6887 2.01082 38.8133 2.37431 38.8662C2.73779 38.9192 3.10817 38.8994 3.46396 38.8081C3.81975 38.7168 4.15386 38.5558 4.44692 38.3343C4.73997 38.1128 4.98613 37.8354 5.17111 37.5181L8.52486 31.9294H13.8887C14.3676 31.9294 14.8384 31.8054 15.2552 31.5694C15.672 31.3335 16.0207 30.9937 16.2672 30.583L19.6209 24.9943H24.9847C25.4637 24.9943 25.9345 24.8703 26.3513 24.6344C26.7681 24.3984 27.1167 24.0586 27.3632 23.648L30.717 18.0593H34.6938C35.4295 18.0592 36.135 17.7668 36.6551 17.2466L44.4029 9.49886V13.8983C44.3977 14.2659 44.4656 14.6308 44.6026 14.9719C44.7397 15.3131 44.9432 15.6235 45.2013 15.8853C45.4594 16.1471 45.767 16.355 46.1061 16.4969C46.4453 16.6387 46.8092 16.7118 47.1769 16.7118C47.5445 16.7118 47.9085 16.6387 48.2476 16.4969C48.5868 16.355 48.8943 16.1471 49.1524 15.8853C49.4105 15.6235 49.614 15.3131 49.7511 14.9719C49.8882 14.6308 49.9561 14.2659 49.9509 13.8983V3.14084C50.004 2.74248 49.9699 2.33734 49.851 1.95346C49.7321 1.56957 49.5312 1.2161 49.2622 0.917505C48.9933 0.618907 48.6626 0.382309 48.2932 0.22408C47.9238 0.0658523 47.5244 -0.010228 47.1227 0.00110307V0.00110307ZM47.1362 20.7954C46.401 20.8062 45.7001 21.1084 45.1876 21.6357C44.675 22.1629 44.3928 22.8721 44.4029 23.6073V47.1865C44.3977 47.5541 44.4656 47.919 44.6026 48.2601C44.7397 48.6013 44.9432 48.9117 45.2013 49.1735C45.4594 49.4353 45.767 49.6432 46.1061 49.7851C46.4453 49.9269 46.8092 50 47.1769 50C47.5445 50 47.9085 49.9269 48.2476 49.7851C48.5868 49.6432 48.8943 49.4353 49.1524 49.1735C49.4105 48.9117 49.614 48.6013 49.7511 48.2601C49.8882 47.919 49.9561 47.5541 49.9509 47.1865V23.6073C49.956 23.2364 49.8866 22.8683 49.7469 22.5246C49.6072 22.181 49.4001 21.8689 49.1376 21.6067C48.8752 21.3446 48.5629 21.1377 48.2191 20.9983C47.8754 20.859 47.5071 20.79 47.1362 20.7954V20.7954ZM36.0402 23.5694C35.3049 23.5802 34.604 23.8824 34.0915 24.4097C33.579 24.9369 33.2967 25.6461 33.3068 26.3814V47.1865C33.3016 47.5541 33.3695 47.919 33.5066 48.2601C33.6437 48.6013 33.8472 48.9117 34.1053 49.1735C34.3634 49.4353 34.6709 49.6432 35.0101 49.7851C35.3492 49.9269 35.7132 50 36.0808 50C36.4484 50 36.8124 49.9269 37.1515 49.7851C37.4907 49.6432 37.7982 49.4353 38.0564 49.1735C38.3145 48.9117 38.518 48.6013 38.655 48.2601C38.7921 47.919 38.86 47.5541 38.8548 47.1865V26.3814C38.8599 26.0105 38.7905 25.6423 38.6509 25.2987C38.5112 24.955 38.304 24.6429 38.0416 24.3807C37.7792 24.1186 37.4668 23.9117 37.1231 23.7723C36.7793 23.633 36.4111 23.564 36.0402 23.5694V23.5694ZM24.9441 29.1174C24.2089 29.1282 23.508 29.4304 22.9954 29.9577C22.4829 30.485 22.2007 31.1941 22.2107 31.9294V47.1865C22.2055 47.5541 22.2734 47.919 22.4105 48.2601C22.5476 48.6013 22.7511 48.9117 23.0092 49.1735C23.2673 49.4353 23.5749 49.6432 23.914 49.7851C24.2532 49.9269 24.6171 50 24.9847 50C25.3524 50 25.7163 49.9269 26.0555 49.7851C26.3946 49.6432 26.7022 49.4353 26.9603 49.1735C27.2184 48.9117 27.4219 48.6013 27.559 48.2601C27.696 47.919 27.764 47.5541 27.7588 47.1865V31.9294C27.7638 31.5585 27.6945 31.1903 27.5548 30.8467C27.4151 30.5031 27.2079 30.1909 26.9455 29.9288C26.6831 29.6666 26.3708 29.4597 26.027 29.3204C25.6832 29.181 25.315 29.112 24.9441 29.1174ZM13.848 36.0525C13.1128 36.0633 12.4119 36.3655 11.8994 36.8927C11.3868 37.42 11.1046 38.1292 11.1147 38.8644V47.1865C11.1095 47.5541 11.1774 47.919 11.3144 48.2601C11.4515 48.6013 11.655 48.9117 11.9131 49.1735C12.1712 49.4353 12.4788 49.6432 12.8179 49.7851C13.1571 49.9269 13.5211 50 13.8887 50C14.2563 50 14.6203 49.9269 14.9594 49.7851C15.2986 49.6432 15.6061 49.4353 15.8642 49.1735C16.1223 48.9117 16.3258 48.6013 16.4629 48.2601C16.6 47.919 16.6679 47.5541 16.6627 47.1865V38.8644C16.6678 38.4935 16.5984 38.1254 16.4587 37.7817C16.319 37.4381 16.1119 37.126 15.8494 36.8638C15.587 36.6017 15.2747 36.3948 14.9309 36.2554C14.5872 36.1161 14.2189 36.0471 13.848 36.0525V36.0525ZM2.75198 42.9875C2.01674 42.9983 1.31585 43.3005 0.803314 43.8278C0.290783 44.3551 0.00853678 45.0642 0.0185945 45.7995V47.1865C0.0133958 47.5541 0.0813074 47.919 0.218382 48.2601C0.355457 48.6013 0.55896 48.9117 0.817067 49.1735C1.07517 49.4353 1.38274 49.6432 1.72188 49.7851C2.06102 49.9269 2.42498 50 2.79261 50C3.16024 50 3.5242 49.9269 3.86334 49.7851C4.20249 49.6432 4.51005 49.4353 4.76816 49.1735C5.02626 48.9117 5.22977 48.6013 5.36684 48.2601C5.50391 47.919 5.57183 47.5541 5.56663 47.1865V45.7995C5.5717 45.4286 5.50234 45.0604 5.36266 44.7168C5.22297 44.3732 5.01579 44.061 4.75337 43.7989C4.49095 43.5367 4.17862 43.3298 3.83486 43.1905C3.49109 43.0511 3.12287 42.9821 2.75198 42.9875Z" fill="white"/>
</svg>
