<svg width="80" height="98" viewBox="0 0 80 98" fill="none" xmlns="http://www.w3.org/2000/svg">
<path d="M3.42048 0C0.879601 0 -0.771971 2.68098 0.366539 4.95311L16.9723 38.1647C10.1413 44.3606 5.84081 53.2988 5.79683 63.3598C5.71376 81.8007 21.0638 97.4674 39.5047 97.7166C58.791 97.9805 74.2051 82.7447 74.2051 63.522C74.2051 53.3927 69.8998 44.3948 63.0296 38.1647L79.6354 4.95311C80.769 2.68098 79.1224 0 76.5815 0H57.6757C55.8238 0 54.14 1.04437 53.3143 2.70083L40.001 29.3178L26.6877 2.70083C25.8619 1.04437 24.1782 0 22.3263 0H3.42048ZM40.001 39.0905C53.6826 39.0905 64.4325 49.8403 64.4325 63.522C64.4325 77.2037 53.6826 87.9535 40.001 87.9535C26.3193 87.9535 15.5694 77.2037 15.5694 63.522C15.5694 49.8403 26.3193 39.0905 40.001 39.0905ZM40.001 48.8631C39.5123 50.329 37.0692 54.7228 32.6715 54.7228V59.6091H38.0445V78.1809H44.4006H44.8873V48.8631H40.001Z" fill="white"/>
</svg>
