<svg width="80" height="73" viewBox="0 0 80 73" fill="none" xmlns="http://www.w3.org/2000/svg">
<path d="M62 48.5436C56.486 48.5436 52 44.0066 52 38.43C52 32.8533 56.486 28.3163 62 28.3163C67.514 28.3163 72 32.8533 72 38.43C72 44.0066 67.514 48.5436 62 48.5436ZM62 72.8205C51.738 72.8205 44 67.5553 44 60.5769V58.7645C44 55.3582 46.738 52.5891 50.104 52.5891H73.896C77.262 52.5891 80 55.3582 80 58.7645V60.5769C80 67.5553 72.262 72.8205 62 72.8205ZM40 20.2274C34.486 20.2274 30 15.6904 30 10.1137C30 4.537 34.486 0 40 0C45.514 0 50 4.537 50 10.1137C50 15.6904 45.514 20.2274 40 20.2274ZM18 48.5436C12.486 48.5436 8 44.0066 8 38.43C8 32.8533 12.486 28.3163 18 28.3163C23.514 28.3163 28 32.8533 28 38.43C28 44.0066 23.514 48.5436 18 48.5436ZM18 72.8205C7.738 72.8205 0 67.5553 0 60.5769V58.7645C0 55.3582 2.738 52.5891 6.104 52.5891H29.896C33.262 52.5891 36 55.3582 36 58.7645V60.5769C36 67.5553 28.262 72.8205 18 72.8205ZM55.81 25.7494C54.748 24.8412 53.394 24.2728 51.896 24.2728H28.104C26.608 24.2728 25.252 24.8412 24.19 25.7494C28.808 28.0655 32 32.8715 32 38.43C32 40.0482 31.718 41.5955 31.22 43.0458C33.788 43.9783 36.768 44.5022 40 44.5022C43.232 44.5022 46.212 43.9783 48.78 43.0458C48.282 41.5955 48 40.0482 48 38.43C48 32.8715 51.192 28.0655 55.81 25.7494Z" fill="white"/>
</svg>
