<svg width="80" height="80" viewBox="0 0 80 80" fill="none" xmlns="http://www.w3.org/2000/svg">
<path d="M75.3963 0.00176492C75.2324 0.00715234 75.0689 0.0216226 74.9065 0.0451089H57.7293C57.1412 0.0367911 56.5572 0.14545 56.0114 0.364769C55.4656 0.584088 54.9689 0.909694 54.55 1.32267C54.1312 1.73564 53.7986 2.22774 53.5716 2.77037C53.3446 3.313 53.2277 3.89533 53.2277 4.48354C53.2277 5.07174 53.3446 5.65408 53.5716 6.19671C53.7986 6.73934 54.1312 7.23144 54.55 7.64441C54.9689 8.05738 55.4656 8.38298 56.0114 8.6023C56.5572 8.82162 57.1412 8.93028 57.7293 8.92196H64.7684L53.6723 20.018H46.6332C45.8669 20.0181 45.1136 20.2165 44.4467 20.594C43.7799 20.9715 43.2221 21.5152 42.8276 22.1722L37.4616 31.1141H28.8795C28.1132 31.1141 27.3599 31.3125 26.693 31.69C26.0261 32.0675 25.4683 32.6113 25.0739 33.2683L19.7079 42.2102H11.1258C10.3595 42.2102 9.60623 42.4086 8.93933 42.7861C8.27244 43.1636 7.71464 43.7073 7.32021 44.3644L0.662574 55.4604C0.353674 55.9604 0.147137 56.5168 0.0549491 57.0972C-0.0372392 57.6776 -0.0132445 58.2706 0.125541 58.8417C0.264326 59.4128 0.515139 59.9506 0.863427 60.424C1.21172 60.8974 1.65054 61.2969 2.15445 61.5994C2.65836 61.9019 3.21732 62.1012 3.79889 62.186C4.38046 62.2707 4.97307 62.2391 5.54234 62.093C6.1116 61.9469 6.64618 61.6892 7.11507 61.3349C7.58396 60.9806 7.97781 60.5366 8.27378 60.0289L13.6398 51.087H22.2219C22.9882 51.087 23.7415 50.8886 24.4084 50.5111C25.0753 50.1336 25.6331 49.5898 26.0275 48.9328L31.3935 39.991H39.9756C40.7419 39.9909 41.4952 39.7925 42.1621 39.415C42.829 39.0375 43.3868 38.4938 43.7812 37.8368L49.1472 28.8949H55.5101C56.6871 28.8947 57.8159 28.4269 58.6482 27.5946L71.0446 15.1982V22.2372C71.0363 22.8254 71.1449 23.4093 71.3642 23.9551C71.5836 24.5009 71.9092 24.9976 72.3221 25.4165C72.7351 25.8354 73.2272 26.1679 73.7698 26.395C74.3125 26.622 74.8948 26.7389 75.483 26.7389C76.0712 26.7389 76.6535 26.622 77.1962 26.395C77.7388 26.1679 78.2309 25.8354 78.6439 25.4165C79.0568 24.9976 79.3824 24.5009 79.6018 23.9551C79.8211 23.4093 79.9297 22.8254 79.9214 22.2372V5.02534C80.0064 4.38797 79.9518 3.73975 79.7616 3.12553C79.5714 2.51132 79.2499 1.94577 78.8196 1.46801C78.3892 0.990251 77.8602 0.611694 77.2691 0.358529C76.6781 0.105364 76.0391 -0.0163649 75.3963 0.00176492V0.00176492ZM75.418 33.2726C74.2416 33.2899 73.1202 33.7734 72.3001 34.617C71.4801 35.4607 71.0285 36.5953 71.0446 37.7717V75.4984C71.0363 76.0865 71.1449 76.6704 71.3642 77.2162C71.5836 77.762 71.9092 78.2588 72.3221 78.6776C72.7351 79.0965 73.2272 79.4291 73.7698 79.6561C74.3125 79.8831 74.8948 80 75.483 80C76.0712 80 76.6535 79.8831 77.1962 79.6561C77.7388 79.4291 78.2309 79.0965 78.6439 78.6776C79.0568 78.2588 79.3824 77.762 79.6018 77.2162C79.8211 76.6704 79.9297 76.0865 79.9214 75.4984V37.7717C79.9295 37.1783 79.8186 36.5892 79.5951 36.0394C79.3716 35.4896 79.0401 34.9902 78.6202 34.5708C78.2003 34.1513 77.7006 33.8203 77.1506 33.5973C76.6006 33.3743 76.0114 33.2639 75.418 33.2726V33.2726ZM57.6643 37.7111C56.4879 37.7283 55.3665 38.2119 54.5464 39.0555C53.7264 39.8991 53.2748 41.0338 53.2909 42.2102V75.4984C53.2826 76.0865 53.3912 76.6704 53.6105 77.2162C53.8298 77.762 54.1555 78.2588 54.5684 78.6776C54.9814 79.0965 55.4735 79.4291 56.0161 79.6561C56.5588 79.8831 57.1411 80 57.7293 80C58.3175 80 58.8998 79.8831 59.4425 79.6561C59.9851 79.4291 60.4772 79.0965 60.8902 78.6776C61.3031 78.2588 61.6287 77.762 61.8481 77.2162C62.0674 76.6704 62.176 76.0865 62.1677 75.4984V42.2102C62.1758 41.6167 62.0649 41.0277 61.8414 40.4779C61.6179 39.9281 61.2864 39.4287 60.8665 39.0092C60.4466 38.5897 59.9469 38.2587 59.3969 38.0357C58.8469 37.8128 58.2577 37.7024 57.6643 37.7111V37.7111ZM39.9106 46.5879C38.7342 46.6052 37.6128 47.0887 36.7927 47.9323C35.9727 48.7759 35.5211 49.9106 35.5372 51.087V75.4984C35.5288 76.0865 35.6375 76.6704 35.8568 77.2162C36.0761 77.762 36.4017 78.2588 36.8147 78.6776C37.2277 79.0965 37.7198 79.4291 38.2624 79.6561C38.805 79.8831 39.3874 80 39.9756 80C40.5638 80 41.1461 79.8831 41.6888 79.6561C42.2314 79.4291 42.7235 79.0965 43.1365 78.6776C43.5494 78.2588 43.875 77.762 44.0944 77.2162C44.3137 76.6704 44.4223 76.0865 44.414 75.4984V51.087C44.4221 50.4936 44.3112 49.9045 44.0877 49.3547C43.8642 48.8049 43.5327 48.3055 43.1128 47.886C42.6929 47.4666 42.1932 47.1356 41.6432 46.9126C41.0932 46.6896 40.504 46.5792 39.9106 46.5879ZM22.1569 57.684C20.9805 57.7012 19.8591 58.1848 19.039 59.0284C18.219 59.872 17.7674 61.0067 17.7835 62.1831V75.4984C17.7751 76.0865 17.8838 76.6704 18.1031 77.2162C18.3224 77.762 18.648 78.2588 19.061 78.6776C19.474 79.0965 19.9661 79.4291 20.5087 79.6561C21.0513 79.8831 21.6337 80 22.2219 80C22.8101 80 23.3924 79.8831 23.9351 79.6561C24.4777 79.4291 24.9698 79.0965 25.3828 78.6776C25.7957 78.2588 26.1213 77.762 26.3407 77.2162C26.56 76.6704 26.6686 76.0865 26.6603 75.4984V62.1831C26.6684 61.5896 26.5575 61.0006 26.334 60.4508C26.1105 59.901 25.779 59.4016 25.3591 58.9821C24.9392 58.5626 24.4395 58.2316 23.8895 58.0087C23.3395 57.7857 22.7503 57.6753 22.1569 57.684V57.684ZM4.40316 68.78C3.22678 68.7973 2.10535 69.2808 1.2853 70.1245C0.465252 70.9681 0.0136588 72.1027 0.0297512 73.2791V75.4984C0.0214334 76.0865 0.130092 76.6704 0.349411 77.2162C0.56873 77.762 0.894336 78.2588 1.30731 78.6776C1.72028 79.0965 2.21238 79.4291 2.75501 79.6561C3.29764 79.8831 3.87997 80 4.46818 80C5.05638 80 5.63872 79.8831 6.18135 79.6561C6.72398 79.4291 7.21608 79.0965 7.62905 78.6776C8.04202 78.2588 8.36763 77.762 8.58694 77.2162C8.80626 76.6704 8.91492 76.0865 8.9066 75.4984V73.2791C8.91472 72.6857 8.80375 72.0967 8.58025 71.5469C8.35675 70.997 8.02526 70.4976 7.60539 70.0782C7.18552 69.6587 6.6858 69.3277 6.13578 69.1047C5.58575 68.8818 4.9966 68.7714 4.40316 68.78Z" fill="white"/>
</svg>
