<svg width="20" height="21" viewBox="0 0 20 21" fill="none" xmlns="http://www.w3.org/2000/svg">
<path d="M9.9846 0.38024C9.70603 0.384322 9.44046 0.498832 9.24627 0.698608C9.05208 0.898385 8.94513 1.16708 8.94894 1.44567V9.32858H1.06603C0.926748 9.32661 0.788468 9.35235 0.659222 9.40428C0.529975 9.45622 0.41234 9.53332 0.313152 9.63112C0.213964 9.72891 0.135202 9.84545 0.0814429 9.97395C0.0276838 10.1024 0 10.2403 0 10.3796C0 10.5189 0.0276838 10.6568 0.0814429 10.7853C0.135202 10.9138 0.213964 11.0304 0.313152 11.1282C0.41234 11.226 0.529975 11.3031 0.659222 11.355C0.788468 11.4069 0.926748 11.4327 1.06603 11.4307H8.94894V19.3136C8.94697 19.4529 8.97271 19.5912 9.02464 19.7204C9.07658 19.8497 9.15369 19.9673 9.25148 20.0665C9.34928 20.1657 9.46581 20.2444 9.59431 20.2982C9.72281 20.352 9.86071 20.3796 10 20.3796C10.1393 20.3796 10.2772 20.352 10.4057 20.2982C10.5342 20.2444 10.6507 20.1657 10.7485 20.0665C10.8463 19.9673 10.9234 19.8497 10.9754 19.7204C11.0273 19.5912 11.053 19.4529 11.0511 19.3136V11.4307H18.934C19.0733 11.4327 19.2115 11.4069 19.3408 11.355C19.47 11.3031 19.5877 11.226 19.6868 11.1282C19.786 11.0304 19.8648 10.9138 19.9186 10.7853C19.9723 10.6568 20 10.5189 20 10.3796C20 10.2403 19.9723 10.1024 19.9186 9.97395C19.8648 9.84545 19.786 9.72891 19.6868 9.63112C19.5877 9.53332 19.47 9.45622 19.3408 9.40428C19.2115 9.35235 19.0733 9.32661 18.934 9.32858H11.0511V1.44567C11.053 1.30513 11.0267 1.16564 10.9738 1.03544C10.9208 0.905244 10.8423 0.78698 10.7429 0.687647C10.6435 0.588314 10.5252 0.509929 10.3949 0.457128C10.2647 0.404327 10.1251 0.378182 9.9846 0.38024Z" fill="#2B2E36"/>
</svg>
