<svg width="20" height="21" viewBox="0 0 20 21" fill="none" xmlns="http://www.w3.org/2000/svg">
<path d="M17.0598 3.29839C16.8599 3.10429 16.5911 2.99749 16.3126 3.00143C16.034 3.00538 15.7684 3.11976 15.5741 3.31944L10 8.89351L4.42594 3.31944C4.32885 3.21956 4.21288 3.13998 4.08477 3.08531C3.95665 3.03065 3.81895 3.00199 3.67966 3.001C3.54037 3.00002 3.40228 3.02673 3.2734 3.07958C3.14452 3.13242 3.02744 3.21036 2.92894 3.30886C2.83045 3.40735 2.75251 3.52444 2.69966 3.65331C2.64681 3.78219 2.62011 3.92028 2.62109 4.05957C2.62208 4.19886 2.65073 4.33656 2.7054 4.46468C2.76007 4.59279 2.83965 4.70877 2.93953 4.80586L8.51359 10.3799L2.93953 15.954C2.83965 16.0511 2.76007 16.1671 2.7054 16.2952C2.65073 16.4233 2.62207 16.561 2.62109 16.7003C2.6201 16.8396 2.64681 16.9777 2.69966 17.1065C2.75251 17.2354 2.83045 17.3525 2.92894 17.451C3.02744 17.5495 3.14452 17.6274 3.2734 17.6803C3.40227 17.7331 3.54037 17.7598 3.67966 17.7588C3.81894 17.7579 3.95665 17.7292 4.08477 17.6745C4.21288 17.6199 4.32885 17.5403 4.42594 17.4404L10 11.8663L15.5741 17.4404C15.6712 17.5403 15.7871 17.6199 15.9153 17.6745C16.0434 17.7292 16.1811 17.7579 16.3204 17.7588C16.4597 17.7598 16.5977 17.7331 16.7266 17.6803C16.8555 17.6274 16.9726 17.5495 17.0711 17.451C17.1696 17.3525 17.2475 17.2354 17.3004 17.1065C17.3532 16.9777 17.3799 16.8396 17.3789 16.7003C17.3779 16.561 17.3493 16.4233 17.2946 16.2952C17.24 16.1671 17.1604 16.0511 17.0605 15.954L11.4864 10.3799L17.0605 4.80586C17.1612 4.70785 17.2413 4.59063 17.2959 4.46114C17.3506 4.33165 17.3787 4.19252 17.3786 4.05197C17.3785 3.91143 17.3503 3.77232 17.2955 3.64288C17.2408 3.51345 17.1606 3.39631 17.0598 3.29839Z" fill="#2B2E36"/>
</svg>
