<svg width="245" height="70" viewBox="0 0 245 70" fill="none" xmlns="http://www.w3.org/2000/svg">
<path d="M36.8031 70C35.7725 70 34.7427 69.8743 33.6969 69.6205C32.9458 69.4396 32.3897 68.7967 32.3148 68.0244L32.2653 67.5121C32.2085 66.9281 31.875 66.4043 31.3691 66.1105C30.8631 65.8178 30.2446 65.7846 29.7157 66.0298L29.2464 66.2433C28.5472 66.5627 27.714 66.4035 27.1827 65.8401C25.736 64.3101 24.6563 62.4388 24.067 60.4304C23.8473 59.686 24.1242 58.8851 24.7534 58.4334L25.1756 58.1299C25.6501 57.7862 25.935 57.2317 25.935 56.6452C25.935 56.3343 25.8511 56.0348 25.7062 55.7701L25.9326 54.366L27.6756 55.0301C28.1538 55.211 28.6542 55.3028 29.1638 55.3028C29.2302 55.3028 29.2955 55.2851 29.362 55.2815C29.4779 55.7247 29.5577 56.1777 29.5577 56.6452C29.5577 58.1096 28.9695 59.5053 27.9515 60.5229C28.2414 61.1895 28.6089 61.8241 29.0412 62.4131C30.4251 62.0354 31.9197 62.2216 33.1804 62.9538C34.4411 63.686 35.3511 64.8979 35.7182 66.2931C36.4536 66.3805 37.1538 66.3805 37.8904 66.2931C38.2563 64.8979 39.1639 63.686 40.4258 62.9538C41.6853 62.2204 43.1788 62.0354 44.5651 62.4131C44.9974 61.8254 45.3649 61.1895 45.6547 60.5229C44.6367 59.5041 44.0485 58.1096 44.0485 56.6452C44.0485 55.1808 44.6367 53.7851 45.6547 52.7675C45.3649 52.1009 44.9974 51.4663 44.5651 50.8773C43.1812 51.255 41.6865 51.0688 40.4258 50.3366C39.1639 49.6044 38.2551 48.3925 37.8881 46.9973C37.4726 46.9475 37.0697 46.9343 36.664 46.9404C36.8705 46.3939 37.06 45.8436 37.2182 45.2826C37.4018 44.6305 37.418 43.9588 37.2961 43.3189C38.1571 43.3529 39.0326 43.4574 39.9117 43.6699C40.6616 43.8508 41.2165 44.4937 41.2914 45.266L41.3409 45.7806C41.3977 46.3647 41.7312 46.8861 42.2372 47.1799C42.7444 47.4713 43.3628 47.5034 43.8905 47.2605L44.3599 47.0471C45.059 46.7253 45.8935 46.8856 46.4236 47.4503C47.8702 48.9803 48.9499 50.8516 49.5392 52.86C49.759 53.6056 49.482 54.4065 48.8529 54.857L48.4307 55.1605C47.9561 55.5042 47.6712 56.0587 47.6712 56.6452C47.6712 57.2317 47.955 57.7851 48.4283 58.1275L48.8529 58.4334C49.482 58.8839 49.759 59.6848 49.5392 60.4304C48.9499 62.4388 47.8702 64.3101 46.4236 65.8401C45.8923 66.4048 45.0578 66.5651 44.3599 66.2433L43.8929 66.0298C43.3591 65.787 42.7419 65.8203 42.2372 66.1105C41.7312 66.4043 41.3977 66.9269 41.3409 67.5098L41.2914 68.0244C41.2165 68.7979 40.6604 69.4396 39.9093 69.6205C38.8636 69.8743 37.8338 70 36.8031 70ZM36.8031 61.5023C35.344 61.5023 34.0203 60.8865 33.1851 59.9418C32.35 58.9971 31.9728 57.8089 31.9728 56.6452C31.9728 55.4815 32.35 54.2933 33.1851 53.3486C34.0203 52.4038 35.344 51.788 36.8031 51.788C38.2623 51.788 39.586 52.4038 40.4211 53.3486C41.2562 54.2933 41.6334 55.4815 41.6334 56.6452C41.6334 57.8089 41.2562 58.9971 40.4211 59.9418C39.586 60.8865 38.2623 61.5023 36.8031 61.5023ZM17.482 57.8595C15.9391 57.8595 14.46 57.6457 13.0598 57.2927C12.7169 57.2061 12.4066 57.0205 12.1673 56.7588C11.928 56.4971 11.7701 56.1707 11.713 55.8199L11.4135 53.9771C11.2958 53.2558 10.865 52.6297 10.2366 52.2647C9.6082 51.8998 8.85661 51.8378 8.17525 52.0964L6.43229 52.7604C6.10168 52.886 5.74176 52.9116 5.39687 52.8341C5.05197 52.7565 4.73716 52.5792 4.49122 52.324C2.4347 50.1927 0.896858 47.5572 0.0689685 44.6185C-0.0272548 44.2768 -0.0220371 43.9142 0.0839797 43.5755C0.189997 43.2367 0.392188 42.9365 0.665677 42.7117L2.10674 41.5259C2.66721 41.0618 2.99119 40.3744 2.99119 39.6452C2.99119 38.9148 2.66604 38.227 2.10438 37.7644L0.663319 36.5786C0.390246 36.3536 0.188513 36.0532 0.0829208 35.7145C-0.0226715 35.3757 -0.0275209 35.0133 0.0689685 34.6718C0.897904 31.7341 2.43443 29.0979 4.49122 26.9663C4.73723 26.7119 5.05175 26.5354 5.39615 26.4583C5.74056 26.3812 6.09986 26.4069 6.42993 26.5323L8.17525 27.194C8.85466 27.4521 9.60626 27.3913 10.2366 27.0256C10.866 26.6604 11.2943 26.0357 11.4112 25.3156L11.7107 23.4728C11.7677 23.122 11.9257 22.7956 12.165 22.5339C12.4043 22.2722 12.7145 22.0866 13.0574 22C14.4595 21.6456 15.9391 21.4308 17.482 21.4308C19.025 21.4308 20.504 21.6446 21.9043 21.9977C22.2472 22.0842 22.5574 22.2698 22.7967 22.5315C23.036 22.7932 23.1939 23.1196 23.251 23.4705L23.5505 25.3132C23.6682 26.0346 24.099 26.6606 24.7274 27.0256C25.3558 27.3905 26.1074 27.4525 26.7888 27.194L28.5317 26.5299C28.8624 26.4043 29.2223 26.3787 29.5672 26.4562C29.9121 26.5338 30.2269 26.7111 30.4728 26.9663C32.5293 29.0976 34.0672 31.7331 34.8951 34.6718C34.9913 35.0135 34.9861 35.3761 34.8801 35.7149C34.774 36.0536 34.5719 36.3539 34.2984 36.5786L32.8573 37.7644C32.2968 38.2285 31.9728 38.916 31.9728 39.6452C31.9728 40.3755 32.298 41.0633 32.8597 41.5259L34.3007 42.7117C34.5738 42.9367 34.7755 43.2371 34.8811 43.5758C34.9867 43.9146 34.9916 44.277 34.8951 44.6185C34.066 47.5601 32.5192 50.1908 30.4681 52.3193C30.2222 52.5745 29.9073 52.7518 29.5625 52.8293C29.2176 52.9069 28.8576 52.8813 28.527 52.7557L26.7888 52.0964C26.1094 51.8382 25.3554 51.8991 24.7251 52.2647C24.0957 52.6299 23.6673 53.2546 23.5505 53.9747L23.2463 55.8365C23.1894 56.187 23.0318 56.5132 22.793 56.7749C22.5541 57.0366 22.2444 57.2223 21.9019 57.3093C20.4888 57.6665 19.0069 57.8595 17.482 57.8595ZM36.8031 57.8595C37.3566 57.8595 37.5423 57.7164 37.7135 57.5227C37.8847 57.3291 38.0107 56.9994 38.0107 56.6452C38.0107 56.291 37.8847 55.9613 37.7135 55.7677C37.5423 55.574 37.3566 55.4309 36.8031 55.4309C36.2497 55.4309 36.0639 55.574 35.8927 55.7677C35.7215 55.9613 35.5956 56.291 35.5956 56.6452C35.5956 56.9994 35.7215 57.3291 35.8927 57.5227C36.0639 57.7164 36.2497 57.8595 36.8031 57.8595ZM17.482 54.2166C18.3138 54.2166 19.0978 54.0515 19.8901 53.9154L19.975 53.3865C20.2669 51.5916 21.3483 50.0176 22.9161 49.1081C24.4835 48.1988 26.3772 48.0454 28.0695 48.6883L28.553 48.8709C29.5824 47.6223 30.3941 46.2172 30.9658 44.6731L30.5648 44.3434H30.5624C29.1631 43.1909 28.3501 41.4649 28.3501 39.6452C28.3501 37.8255 29.1634 36.1002 30.5601 34.9469L30.5624 34.9445L30.9658 34.6125C30.3951 33.067 29.5849 31.6611 28.5577 30.4147L28.0695 30.602C26.3768 31.2444 24.4807 31.0899 22.9137 30.1799C21.3468 29.2698 20.2679 27.6985 19.975 25.9038V25.9014L19.8901 25.3844C19.0945 25.2436 18.3053 25.0737 17.482 25.0737C16.658 25.0737 15.8679 25.2429 15.0716 25.3844L14.9867 25.9014V25.9038C14.6948 27.6987 13.6157 29.2727 12.048 30.1822C10.4805 31.0916 8.58682 31.2449 6.89456 30.602L6.40399 30.417C5.37715 31.6637 4.56687 33.0685 3.99593 34.6149L4.39924 34.9469H4.40159C5.80103 36.0994 6.6139 37.8255 6.6139 39.6452C6.6139 41.4649 5.80059 43.1901 4.40395 44.3434L4.40159 44.3458L3.99828 44.6778C4.56897 46.2233 5.37919 47.6292 6.40635 48.8756L6.89456 48.6883C8.58728 48.0459 10.4834 48.2004 12.0503 49.1104C13.6173 50.0205 14.6962 51.5919 14.989 53.3865V53.3889L15.074 53.9059C15.8695 54.0468 16.6588 54.2166 17.482 54.2166ZM17.482 46.9309C15.2178 46.9309 13.2903 46.0115 12.0527 44.6114C10.815 43.2113 10.2366 41.416 10.2366 39.6452C10.2366 37.8743 10.815 36.079 12.0527 34.6789C13.2903 33.2788 15.2178 32.3594 17.482 32.3594C19.7462 32.3594 21.6737 33.2788 22.9114 34.6789C24.149 36.079 24.7274 37.8743 24.7274 39.6452C24.7274 41.416 24.149 43.2113 22.9114 44.6114C21.6737 46.0115 19.7462 46.9309 17.482 46.9309ZM17.482 43.288C18.8405 43.288 19.6301 42.8413 20.2038 42.1923C20.7775 41.5433 21.1047 40.6065 21.1047 39.6452C21.1047 38.6838 20.7775 37.747 20.2038 37.098C19.6301 36.449 18.8405 36.0023 17.482 36.0023C16.1235 36.0023 15.334 36.449 14.7603 37.098C14.1866 37.747 13.8593 38.6838 13.8593 39.6452C13.8593 40.6065 14.1866 41.5433 14.7603 42.1923C15.334 42.8413 16.1235 43.288 17.482 43.288Z" fill="black"/>
<path d="M2.33171 6.38561C1.75319 7.24266 1.27781 8.16894 0.898096 9.17982C0.624263 9.90512 0.837198 10.7255 1.42594 11.2176L1.81654 11.544C2.26173 11.9163 2.50227 12.4852 2.45827 13.0695C2.41328 13.6532 2.09331 14.186 1.59609 14.4893L1.1583 14.7607C0.505006 15.1644 0.167271 15.9458 0.329209 16.7013C0.766806 18.756 1.68917 20.6955 2.99878 22.3035C3.48338 22.9007 4.29295 23.1162 5.01503 22.8444L5.49995 22.6624C6.047 22.459 6.65981 22.5308 7.13883 22.8573C7.39273 23.0304 7.59032 23.2669 7.72519 23.5347L8.99902 24.128L9.43499 22.309C9.55563 21.8106 9.76155 21.3434 10.0476 20.9196C10.0849 20.8644 10.136 20.82 10.1762 20.7668C9.8793 20.4236 9.55414 20.1051 9.17231 19.8448C7.97623 19.0296 6.50618 18.7418 5.10366 19.0219C4.72186 18.4098 4.40981 17.7509 4.17147 17.0635C5.25669 16.123 5.94361 14.7765 6.05322 13.3205C6.16283 11.8646 5.68383 10.4333 4.75034 9.35132C5.09173 8.69111 5.48475 8.10887 5.96963 7.545C7.31456 8.01742 8.81381 7.93729 10.1202 7.29554C11.4262 6.65648 12.4155 5.51756 12.8852 4.15456C13.6079 4.12223 14.3335 4.17058 15.0407 4.30069C15.3014 5.71433 16.1101 6.97968 17.3062 7.79489C18.5023 8.6101 19.9723 8.89792 21.3748 8.61786C21.7567 9.22996 22.0687 9.88886 22.307 10.5762C21.2218 11.5167 20.5349 12.8633 20.4253 14.3192C20.315 15.7762 20.7947 17.2065 21.7282 18.2884C21.5357 18.6616 21.3203 19.004 21.0876 19.338C21.6498 19.4705 22.2057 19.6192 22.7527 19.7999C23.3883 20.0103 23.946 20.3707 24.4002 20.8284C24.8558 20.0935 25.2618 19.3073 25.5817 18.4579C25.8549 17.7336 25.6413 16.9143 25.0526 16.4221L24.66 16.0944C24.2148 15.7221 23.9762 15.1545 24.0202 14.5702C24.0669 13.9862 24.3879 13.4541 24.8824 13.1505L25.3202 12.879C25.9755 12.4767 26.3129 11.6936 26.1493 10.9385C25.7117 8.88377 24.7893 6.94426 23.4797 5.33619C22.9941 4.73839 22.1846 4.52289 21.4635 4.79527L20.9786 4.97735C20.4315 5.18069 19.8187 5.10889 19.3397 4.7824C18.8607 4.45591 18.568 3.91195 18.554 3.32769L18.5424 2.80436C18.5276 2.03041 18.029 1.35428 17.2967 1.12199C15.3255 0.493985 13.1911 0.350073 11.1294 0.701347C10.37 0.828857 9.77067 1.43347 9.64171 2.193L9.55391 2.70016C9.45267 3.27919 9.07905 3.77388 8.55869 4.03207C8.03467 4.28923 7.42067 4.27567 6.91276 3.9984L6.46462 3.7531C5.79083 3.38477 4.95457 3.49 4.38519 4.01387C3.59091 4.7422 2.91024 5.52856 2.33171 6.38561ZM9.27217 11.116C8.45314 12.3294 8.21307 13.7729 8.51593 14.9933C8.81878 16.2137 9.57751 17.1887 10.528 17.8365C11.4784 18.4843 12.6605 18.8321 13.9009 18.6636C15.1413 18.495 16.3873 17.7371 17.2063 16.5237C18.0254 15.3103 18.2654 13.8668 17.9626 12.6464C17.6597 11.4261 16.901 10.451 15.9506 9.80321C15.0001 9.15542 13.818 8.80763 12.5776 8.97617C11.3372 9.14471 10.0912 9.90265 9.27217 11.116ZM12.2475 13.1439C12.5582 12.6837 12.7793 12.6089 13.0336 12.5743C13.2878 12.5398 13.6278 12.6185 13.9171 12.8157C14.2063 13.0129 14.4049 13.3012 14.467 13.5513C14.5291 13.8015 14.5417 14.0356 14.231 14.4958C13.9204 14.9561 13.6992 15.0308 13.4449 15.0654C13.1907 15.0999 12.8507 15.0212 12.5614 14.824C12.2722 14.6269 12.0736 14.3386 12.0115 14.0884C11.9495 13.8383 11.9368 13.6041 12.2475 13.1439Z" fill="black"/>
<path d="M42.2106 15.8716H39.3369L35.01 9.79994V15.8716H32.4791V3.89212H35.01V9.69342L39.2879 3.89212H41.982L37.6306 9.64426L42.2106 15.8716Z" fill="black"/>
<path d="M51.0196 15.8716L50.1542 13.0202H45.8028L44.9374 15.8716H42.2106L46.4233 3.84295H49.5174L53.7464 15.8716H51.0196ZM49.5501 10.8897C48.75 8.30592 48.2983 6.84466 48.1949 6.50598C48.0969 6.1673 48.0261 5.89963 47.9826 5.70298C47.803 6.40219 47.2887 8.13111 46.4396 10.8897H49.5501Z" fill="black"/>
<path d="M64.9883 15.8716H62.1145L57.7876 9.79994V15.8716H55.2567V3.89212H57.7876V9.69342L62.0655 3.89212H64.7597L60.4082 9.64426L64.9883 15.8716Z" fill="black"/>
<path d="M77.3241 9.86549C77.3241 11.8484 76.8342 13.3725 75.8546 14.4377C74.8749 15.5029 73.4707 16.0355 71.6419 16.0355C69.8132 16.0355 68.409 15.5029 67.4293 14.4377C66.4496 13.3725 65.9598 11.843 65.9598 9.84911C65.9598 7.85525 66.4496 6.33391 67.4293 5.28509C68.4144 4.2308 69.8241 3.70366 71.6582 3.70366C73.4924 3.70366 74.8939 4.23353 75.8627 5.29328C76.837 6.35303 77.3241 7.8771 77.3241 9.86549ZM68.6131 9.86549C68.6131 11.2038 68.8662 12.2117 69.3723 12.8891C69.8785 13.5664 70.635 13.9051 71.6419 13.9051C73.6612 13.9051 74.6708 12.5586 74.6708 9.86549C74.6708 7.16696 73.6666 5.81769 71.6582 5.81769C70.6514 5.81769 69.8921 6.15911 69.3805 6.84193C68.8689 7.5193 68.6131 8.52715 68.6131 9.86549Z" fill="black"/>
<path d="M79.7978 3.89212H82.0755V9.67703L82.0429 11.2257L81.9612 12.9874H82.0102L87.5209 3.89212H90.5498V15.8716H88.2965V10.1195C88.2965 9.34928 88.3455 8.20759 88.4435 6.69444H88.3782L82.843 15.8716H79.7978V3.89212ZM89.1292 0C89.0258 1.02151 88.6421 1.76716 87.9781 2.23694C87.3141 2.70127 86.3562 2.93343 85.1044 2.93343C83.8145 2.93343 82.8593 2.70946 82.2388 2.26153C81.6238 1.81359 81.2782 1.05975 81.202 0H83.4308C83.4689 0.56265 83.6077 0.95869 83.8471 1.18812C84.092 1.41209 84.5275 1.52407 85.1534 1.52407C85.7031 1.52407 86.1113 1.40116 86.378 1.15534C86.6501 0.904064 86.8161 0.518949 86.876 0H89.1292Z" fill="black"/>
<path d="M92.5581 12.3974V10.3489H96.9422V12.3974H92.5581Z" fill="black"/>
<path d="M103.555 15.8716H101.024V6.00615H97.7831V3.89212H106.796V6.00615H103.555V15.8716Z" fill="black"/>
<path d="M119.467 9.86549C119.467 11.8484 118.977 13.3725 117.997 14.4377C117.018 15.5029 115.613 16.0355 113.785 16.0355C111.956 16.0355 110.552 15.5029 109.572 14.4377C108.592 13.3725 108.102 11.843 108.102 9.84911C108.102 7.85525 108.592 6.33391 109.572 5.28509C110.557 4.2308 111.967 3.70366 113.801 3.70366C115.635 3.70366 117.037 4.23353 118.005 5.29328C118.98 6.35303 119.467 7.8771 119.467 9.86549ZM110.756 9.86549C110.756 11.2038 111.009 12.2117 111.515 12.8891C112.021 13.5664 112.778 13.9051 113.785 13.9051C115.804 13.9051 116.813 12.5586 116.813 9.86549C116.813 7.16696 115.809 5.81769 113.801 5.81769C112.794 5.81769 112.035 6.15911 111.523 6.84193C111.012 7.5193 110.756 8.52715 110.756 9.86549Z" fill="black"/>
<path d="M56.001 28.9449C54.4389 28.9449 53.2294 29.5362 52.3726 30.7187C51.5157 31.8923 51.0872 33.5318 51.0872 35.637C51.0872 40.0179 52.7251 42.2083 56.001 42.2083C57.3756 42.2083 59.0403 41.8633 60.9951 41.1735V44.6674C59.3884 45.3393 57.5943 45.6753 55.6127 45.6753C52.7653 45.6753 50.5874 44.8108 49.0789 43.0817C47.5704 41.3437 46.8161 38.8532 46.8161 35.6102C46.8161 33.5676 47.1866 31.7803 47.9274 30.2484C48.6683 28.7075 49.7305 27.5294 51.114 26.7142C52.5064 25.89 54.1354 25.4779 56.001 25.4779C57.9022 25.4779 59.8124 25.9393 61.7315 26.862L60.3926 30.2484C59.6606 29.899 58.9242 29.5944 58.1834 29.3346C57.4425 29.0748 56.715 28.9449 56.001 28.9449Z" fill="black"/>
<path d="M80.6099 25.7601L74.5581 39.655C73.7994 41.402 73.0853 42.6562 72.4159 43.4177C71.7554 44.1792 70.9699 44.748 70.0594 45.1243C69.149 45.4916 68.0421 45.6753 66.7389 45.6753C65.6232 45.6753 64.5833 45.5409 63.6193 45.2721V41.6976C64.4048 42.0201 65.3822 42.1814 66.5515 42.1814C67.2924 42.1814 67.8904 42.0112 68.3456 41.6707C68.8008 41.3213 69.1802 40.7211 69.4837 39.87L62.7089 25.7601H67.1004L71.9205 36.7121H72.0544L72.2954 36.0402L76.3389 25.7601H80.6099Z" fill="black"/>
<path d="M98.578 45.4065H94.4408V29.2271H87.2375V45.4065H83.0869V25.7601H98.578V45.4065Z" fill="black"/>
<path d="M114.792 45.4065H103.519V25.7601H114.792V29.1733H107.669V33.487H114.297V36.9002H107.669V41.9664H114.792V45.4065Z" fill="black"/>
<path d="M123.04 35.0055H124.405C125.682 35.0055 126.637 34.7546 127.271 34.2529C127.904 33.7423 128.221 33.0032 128.221 32.0357C128.221 31.0592 127.953 30.338 127.418 29.8721C126.891 29.4063 126.061 29.1733 124.927 29.1733H123.04V35.0055ZM132.412 31.8878C132.412 34.0021 131.751 35.6191 130.43 36.739C129.118 37.8588 127.248 38.4187 124.82 38.4187H123.04V45.4065H118.889V25.7601H125.142C127.516 25.7601 129.319 26.2752 130.551 27.3055C131.792 28.3267 132.412 29.8542 132.412 31.8878Z" fill="black"/>
<path d="M152.067 45.4065H147.354L140.258 35.4489V45.4065H136.107V25.7601H140.258V35.2742L147.274 25.7601H151.692L144.556 35.1936L152.067 45.4065Z" fill="black"/>
<path d="M158.681 35.0055H160.047C161.323 35.0055 162.278 34.7546 162.912 34.2529C163.546 33.7423 163.863 33.0032 163.863 32.0357C163.863 31.0592 163.595 30.338 163.059 29.8721C162.533 29.4063 161.703 29.1733 160.569 29.1733H158.681V35.0055ZM168.053 31.8878C168.053 34.0021 167.393 35.6191 166.072 36.739C164.76 37.8588 162.89 38.4187 160.462 38.4187H158.681V45.4065H154.531V25.7601H160.783C163.158 25.7601 164.961 26.2752 166.192 27.3055C167.433 28.3267 168.053 29.8542 168.053 31.8878Z" fill="black"/>
<path d="M187.186 25.7601L181.135 39.655C180.376 41.402 179.662 42.6562 178.992 43.4177C178.332 44.1792 177.546 44.748 176.636 45.1243C175.725 45.4916 174.619 45.6753 173.315 45.6753C172.2 45.6753 171.16 45.5409 170.196 45.2721V41.6976C170.981 42.0201 171.959 42.1814 173.128 42.1814C173.869 42.1814 174.467 42.0112 174.922 41.6707C175.377 41.3213 175.757 40.7211 176.06 39.87L169.285 25.7601H173.677L178.497 36.7121H178.631L178.872 36.0402L182.915 25.7601H187.186Z" fill="black"/>
<path d="M197.215 45.4065H193.064V29.2271H187.749V25.7601H202.53V29.2271H197.215V45.4065Z" fill="black"/>
<path d="M223.31 35.5564C223.31 38.8084 222.506 41.3079 220.9 43.0549C219.293 44.8018 216.99 45.6753 213.991 45.6753C210.992 45.6753 208.689 44.8018 207.082 43.0549C205.476 41.3079 204.672 38.7995 204.672 35.5295C204.672 32.2596 205.476 29.7646 207.082 28.0445C208.698 26.3155 211.01 25.451 214.018 25.451C217.026 25.451 219.324 26.32 220.913 28.058C222.511 29.796 223.31 32.2955 223.31 35.5564ZM209.024 35.5564C209.024 37.7513 209.439 39.4042 210.269 40.5151C211.099 41.6259 212.34 42.1814 213.991 42.1814C217.303 42.1814 218.958 39.9731 218.958 35.5564C218.958 31.1308 217.312 28.918 214.018 28.918C212.367 28.918 211.121 29.4779 210.282 30.5978C209.443 31.7087 209.024 33.3615 209.024 35.5564Z" fill="black"/>
<path d="M227.367 25.7601H231.102V35.2473L231.049 37.7871L230.915 40.6763H230.995L240.033 25.7601H245V45.4065H241.305V35.973C241.305 34.7098 241.385 32.8375 241.546 30.3559H241.439L232.361 45.4065H227.367V25.7601ZM242.67 19.377C242.501 21.0523 241.871 22.2751 240.782 23.0456C239.693 23.8071 238.123 24.1878 236.07 24.1878C233.954 24.1878 232.388 23.8205 231.37 23.0859C230.361 22.3513 229.795 21.115 229.67 19.377H233.325C233.387 20.2998 233.615 20.9493 234.008 21.3255C234.409 21.6928 235.123 21.8765 236.15 21.8765C237.051 21.8765 237.721 21.6749 238.158 21.2718C238.605 20.8597 238.877 20.2281 238.975 19.377H242.67Z" fill="black"/>
<path d="M76.671 65.8795H74.1483V56.014H71.2256L71.0949 57.112C70.7575 59.9034 70.4581 61.8645 70.1969 62.9953C69.9411 64.1206 69.5655 64.9127 69.0703 65.3715C68.575 65.8304 67.9055 66.0543 67.0619 66.0434C66.6047 66.0434 66.202 65.9833 65.8536 65.8632V63.7819C66.1693 63.8911 66.4659 63.9458 66.7435 63.9458C67.032 63.9458 67.2606 63.8147 67.4293 63.5525C67.598 63.2848 67.7559 62.7932 67.9028 62.0776C68.0552 61.3565 68.2539 60.1793 68.4988 58.546C68.7491 56.9072 68.9614 55.3585 69.1356 53.9H76.671V65.8795Z" fill="black"/>
<path d="M90.5171 59.8734C90.5171 61.8563 90.0273 63.3804 89.0476 64.4456C88.0679 65.5108 86.6637 66.0434 84.835 66.0434C83.0062 66.0434 81.602 65.5108 80.6224 64.4456C79.6427 63.3804 79.1528 61.8509 79.1528 59.857C79.1528 57.8631 79.6427 56.3418 80.6224 55.293C81.6075 54.2387 83.0171 53.7116 84.8513 53.7116C86.6855 53.7116 88.087 54.2414 89.0558 55.3012C90.03 56.3609 90.5171 57.885 90.5171 59.8734ZM81.8061 59.8734C81.8061 61.2117 82.0592 62.2196 82.5654 62.8969C83.0716 63.5743 83.8281 63.913 84.835 63.913C86.8542 63.913 87.8638 62.5665 87.8638 59.8734C87.8638 57.1749 86.8597 55.8256 84.8513 55.8256C83.8444 55.8256 83.0852 56.167 82.5735 56.8498C82.0619 57.5272 81.8061 58.535 81.8061 59.8734Z" fill="black"/>
<path d="M100.534 53.9V55.9977H95.5217V65.8795H92.9908V53.9H100.534Z" fill="black"/>
<path d="M113.213 59.8734C113.213 61.8563 112.723 63.3804 111.744 64.4456C110.764 65.5108 109.36 66.0434 107.531 66.0434C105.702 66.0434 104.298 65.5108 103.318 64.4456C102.339 63.3804 101.849 61.8509 101.849 59.857C101.849 57.8631 102.339 56.3418 103.318 55.293C104.303 54.2387 105.713 53.7116 107.547 53.7116C109.381 53.7116 110.783 54.2414 111.752 55.3012C112.726 56.3609 113.213 57.885 113.213 59.8734ZM104.502 59.8734C104.502 61.2117 104.755 62.2196 105.261 62.8969C105.768 63.5743 106.524 63.913 107.531 63.913C109.55 63.913 110.56 62.5665 110.56 59.8734C110.56 57.1749 109.556 55.8256 107.547 55.8256C106.54 55.8256 105.781 56.167 105.27 56.8498C104.758 57.5272 104.502 58.535 104.502 59.8734Z" fill="black"/>
<path d="M120.291 65.8795H117.76V56.014H114.519V53.9H123.532V56.014H120.291V65.8795Z" fill="black"/>
<path d="M125.369 53.9H127.647V59.6849L127.614 61.2336L127.533 62.9953H127.582L133.093 53.9H136.121V65.8795H133.868V60.1274C133.868 59.3572 133.917 58.2155 134.015 56.7023H133.95L128.415 65.8795H125.369V53.9Z" fill="black"/>
<path d="M148.58 65.8795H146.057V56.014H141.665V65.8795H139.134V53.9H148.58V65.8795Z" fill="black"/>
</svg>
