<svg width="700" height="368" viewBox="0 0 700 368" fill="none" xmlns="http://www.w3.org/2000/svg">
<path d="M626.69 179.163C626.69 179.163 632.266 177.144 635.871 182.787C639.475 188.431 637.524 187.894 639.277 190.717C641.033 193.54 641.873 201.559 642.48 205.894C648.659 250.118 574.743 253.701 603.606 197.335C606.314 192.046 608.605 188.869 611.038 183.225C613.475 177.582 623.771 177.801 626.69 179.163Z" fill="#FE6B6B"/>
<path d="M610.882 220.478L603.426 217.876C603.426 217.876 600.468 221.655 599.58 231.106C598.696 240.557 599.58 246.114 599.58 246.114H608.014L610.882 220.478Z" fill="#355389"/>
<path d="M625.813 215.404C623.288 215.664 604.475 213.878 603.426 217.875C597.791 239.361 605.54 269.023 607.52 271.002C609.5 272.982 641.83 266.536 641.83 266.536C641.83 266.536 646.903 213.231 625.813 215.404Z" fill="#466EB6"/>
<path d="M651.49 193.376C651.49 193.376 649.414 192.388 647.524 188.891C646.313 186.648 642.712 183.774 644.206 183.309C645.706 182.845 648.008 186.637 648.438 185.55C648.864 184.465 644.575 176.255 645.936 175.834C647.294 175.412 650.851 183.398 651.237 182.426C651.623 181.454 647.604 174.477 649.525 173.881C651.446 173.286 653.522 182.47 654.551 182.151C655.584 181.831 654.08 174.824 655.628 174.344C657.172 173.865 656.955 183.01 657.509 182.746C657.811 182.604 659.182 178.174 660.024 178.507C660.974 178.882 658.41 187.975 659.55 189.978C660.685 191.982 669.796 216.895 666.682 220.008C663.289 223.398 641.691 231.176 637.171 229.838C632.656 228.501 630.065 224.037 631.152 221.295C632.239 218.55 653.588 212.386 653.93 211.527C654.271 210.665 651.49 193.376 651.49 193.376Z" fill="#F7A491"/>
<path d="M653.223 185.51C653.873 185.484 654.519 185.628 655.135 185.857C655.226 185.921 657.273 186.517 658.155 188.779C657.181 187.622 656.099 186.343 653.223 185.51Z" fill="#F48C7F"/>
<path d="M359.613 351.159C359.256 348.595 360.059 344.184 362.07 337.282C358.089 337.29 354.745 335.531 350.678 335.593C349.565 342.082 347.844 352.739 347.844 352.739L347.662 361.164L375.981 361.376C375.981 361.376 375.745 361.497 367.395 356.228C366.78 355.838 359.96 353.638 359.613 351.159Z" fill="#F7A491"/>
<path d="M347.527 363.332H376.763C377.844 363.235 378.107 362.354 377.731 361.811C376.96 360.692 371.258 358.006 367.425 356.225C360.702 356.931 348.882 354.165 347.823 352.61C345.979 357.764 346.927 363.2 347.527 363.332Z" fill="#357E84"/>
<path d="M324.336 351.159C323.976 348.595 323.368 345.382 324.261 336.831C320.28 336.842 316.495 336.095 312.428 336.157C312.428 342.834 312.567 352.739 312.567 352.739L312.382 361.164L340.702 361.376C340.702 361.376 340.468 361.497 332.118 356.228C331.5 355.838 324.68 353.638 324.336 351.159Z" fill="#F7A491"/>
<path d="M312.25 363.332H341.484C342.564 363.235 342.828 362.354 342.454 361.811C341.682 360.692 335.981 358.006 332.148 356.225C325.422 356.931 313.605 354.165 312.543 352.61C310.699 357.764 311.648 363.2 312.25 363.332Z" fill="#357E84"/>
<path d="M344.915 106.823L355.568 95.5923C355.568 95.5923 366.971 101.859 380.263 107.845C383.915 101.49 389.878 80.5877 390.202 79.591C390.521 78.5915 383.216 66.0346 384.85 65.7194C386.485 65.4071 388.608 72.4266 390.333 71.7139C392.061 71.004 396.506 54.7159 397.546 55.6047C399.49 57.2687 395.207 65.7365 396.233 66.3527C397.259 66.9689 399.86 56.9677 401.841 57.3937C403.819 57.8196 398.498 66.5003 399.081 67.3323C399.664 68.1672 405.231 60.026 406.38 61.9115C407.005 62.9338 401.247 69.0021 402.429 69.6807C403.617 70.3594 408.804 66.5372 409.424 67.7753C410.043 69.0134 404.581 70.3026 403.066 73.4347C401.548 76.5668 398.791 77.785 397.876 83.7085C396.966 89.6234 394.46 121.28 388.002 123.821C382.364 126.039 344.915 106.823 344.915 106.823Z" fill="#FFD3AC"/>
<path d="M351.798 167.385L343.158 172.201L325.599 199.024L357.002 272.872C357.002 272.872 353.465 283.978 352.314 289.527C351.107 295.331 348.15 345.157 348.15 345.157L361.548 345.38C361.548 345.38 374.274 292.339 376.427 275.123C379.045 254.217 363.11 204.425 363.11 204.425C360.14 194.267 353.734 173.369 353.734 173.369C353.734 173.369 352.166 168.277 351.798 167.385Z" fill="#414698"/>
<path d="M321.731 157.314C321.731 157.314 322.623 163.626 319.051 170.821C316.873 175.21 313.11 178.65 310.416 184.025C305.32 194.198 302.551 208.645 304.462 217.933C304.462 217.933 315.002 258.147 314.586 272.843C314.43 278.263 312.57 288.029 311.379 294.63C310.325 300.467 310.696 343.759 310.696 343.759L324.93 344.035L336.387 273.026L341.231 209.905L351.795 167.392L321.731 157.314Z" fill="#466EB6"/>
<path d="M354.99 63.5032C353.609 56.9848 352.184 50.4422 345.7 45.7475C340.453 41.9498 334.816 40.862 328.84 43.0295C311.905 49.1665 321.012 62.5927 299.999 76.9026C293.469 81.3502 290.991 82.8999 286.305 88.8248C279.746 97.1212 276.16 108.248 279.456 117.412C286.276 136.36 307.405 141.834 318.456 137.816C339.028 130.339 356.168 104.271 357.308 97.1588C358.525 89.5446 355.88 67.7011 354.99 63.5032Z" fill="#13375B"/>
<path d="M356.561 113.878C361.327 116.08 369.961 119.386 369.961 119.386L374.873 103.865C347.109 88.0863 349.287 90.6324 328.451 90.9412C311.803 91.1776 304.827 88.003 290.491 126.665C290.491 126.665 301.405 131.564 305.311 133.138C306.991 128.357 310.029 118.825 311.8 124.258C314.475 132.469 316.435 140.757 317.749 149.29C318.583 154.347 320.4 160.823 319.443 165.974C319.443 165.974 330.781 168.308 339.44 168.687C339.464 168.687 339.491 168.689 339.515 168.687C343.698 168.579 347.986 168.211 351.8 167.389C351.8 167.389 353.496 131.523 354.405 130.025C355.41 128.368 359.652 123.015 356.042 115.006C355.405 113.59 355.577 113.424 356.561 113.878Z" fill="#357E84"/>
<path d="M331.056 74.9782C331.056 74.9782 329.731 85.6729 328.949 89.3874C328.132 93.2737 326.9 105.51 334.965 107.498C343.029 109.482 340.537 94.1815 340.672 90.2307C340.804 86.2799 343.091 72.5045 343.091 72.5045L331.056 74.9782Z" fill="#FFD3AC"/>
<path d="M330.616 78.3933C330.699 78.4417 330.774 78.4954 330.858 78.541C335.314 81.0952 339.193 80.6924 342.107 78.7049C342.626 75.2859 343.089 72.5061 343.089 72.5061L331.054 74.9797C331.054 74.9797 330.876 76.4032 330.616 78.3933Z" fill="#F47458"/>
<path d="M333.48 47.1231C333.48 47.1231 328.754 48.4499 326.028 53.1392C323.305 57.8259 321.945 71.2925 331.977 77.04C342.007 82.7849 349.128 73.5781 348.824 64.9674C348.52 56.3541 346.117 44.961 333.48 47.1231Z" fill="#FFD3AC"/>
<path d="M351.041 61.2727C351.154 63.51 350.194 65.3766 348.901 65.4437C347.606 65.5082 346.469 63.7463 346.356 61.5091C346.245 59.2691 347.202 57.4025 348.498 57.3354C349.791 57.2709 350.931 59.0328 351.041 61.2727Z" fill="#FFD3AC"/>
<path d="M334.901 46.7704C334.901 46.7704 329.495 60.8546 324.202 62.356C318.909 63.8573 319.334 70.7839 319.334 70.7839C319.334 70.7839 318.657 54.7713 323.49 50.8447C328.323 46.9181 334.901 46.7704 334.901 46.7704Z" fill="#13375B"/>
<path d="M326.473 65.107C327.29 67.3067 326.755 69.5439 325.279 70.0999C323.803 70.6558 321.943 69.321 321.126 67.1187C320.311 64.919 320.846 62.6818 322.322 62.1258C323.798 61.5698 325.658 62.9047 326.473 65.107Z" fill="#FFD3AC"/>
<path d="M335.719 176.132C335.915 176.159 336.8 176.043 337.523 176.062C338.523 176.078 339.396 176.231 339.396 176.231C339.396 176.231 339.792 175.893 340.542 175.544C340.853 175.401 341.361 175.348 341.711 175.187C342.068 175.017 342.372 174.714 342.711 174.563C343.595 174.179 344.407 174.088 344.676 174.553C344.899 174.937 339.977 177.945 339.977 177.945C335.423 177.972 330.654 180.292 320.098 173.411C314.069 170.779 284.792 156.332 284.203 153.182C283.872 151.415 288.364 137.736 292.036 127.35C294.867 128.615 300.886 131.293 304.254 132.703C301.163 139.243 297.52 147.918 297.902 148.979C298.001 149.255 298.367 149.755 318.16 162.703C318.66 163.025 319.168 163.364 319.687 163.702C321.079 164.613 322.571 165.585 324.152 166.611L329.797 166.023C329.797 166.023 338.738 166.638 339.004 167.656C339.12 168.12 338.38 168.351 337.469 168.485H337.442C337.308 168.504 337.173 168.52 337.039 168.539C337.031 168.539 337.023 168.539 337.023 168.539C336.039 168.655 335.004 168.673 334.754 168.762C334.466 168.859 333.896 169.084 333.404 169.423C338.977 171.698 338.55 170.887 340.399 170.771C340.861 170.733 341.353 170.868 341.792 170.833C342.542 170.771 343.141 170.323 343.719 170.288C344.568 170.245 345.257 170.637 345.41 170.798C345.606 170.994 345.238 171.279 344.525 171.601C340.219 173.465 336.654 172.751 335.512 173.027C334.743 173.215 336.146 173.5 338.335 173.269C338.88 173.215 339.595 173.411 340.318 173.242C340.8 173.135 341.238 172.823 341.711 172.705C342.149 172.6 342.595 172.608 342.961 172.536C343.445 172.447 344.114 172.082 344.499 172.036C345.926 171.878 346.622 172.127 346.783 172.259C347.114 172.554 340.622 175.044 340.622 175.044C340.622 175.044 336.146 175.686 335.146 175.686C335.146 175.686 334.547 175.955 335.719 176.132Z" fill="#FFD3AC"/>
<path d="M698.022 363.329H1.97871C0.885844 363.329 0 364.186 0 365.239C0 366.294 0.885844 367.148 1.97871 367.148H698.022C699.113 367.148 700 366.294 700 365.239C700 364.186 699.113 363.329 698.022 363.329Z" fill="#184655"/>
<path d="M40.422 222.092C40.422 222.092 37.429 258.979 37.429 262.183C37.429 265.387 50.1684 266.292 50.1684 266.292L54.0633 228.441L40.422 222.092Z" fill="#466EB6"/>
<path d="M59.423 213.115C59.423 213.115 51.1575 208.692 44.3432 212.745C37.5293 216.798 35.6736 240.604 35.6736 240.604L57.5018 243.218L59.423 213.115Z" fill="#86B1F2"/>
<path d="M109.896 334.542C109.896 334.542 105.719 351.562 102.606 354.234C99.4926 356.907 89.3408 362.018 91.9972 362.568C94.6536 363.116 114.313 363.573 113.774 360.299C113.235 357.022 112.669 354.933 112.669 354.933L117.87 342.777L109.896 334.542Z" fill="#F47458"/>
<path d="M90.6785 363.266C95.4731 363.744 109.472 364.246 113.551 363.725C113.551 363.725 114.316 363.575 113.777 360.301C113.645 359.498 113.512 358.77 113.386 358.123C109.686 359.095 101.63 357.027 98.4384 356.602C94.9715 358.262 91.0637 360.738 89.8032 360.945C87.9774 361.246 87.979 362.997 90.6785 363.266Z" fill="#13375B"/>
<path d="M155.743 348.813C155.743 348.813 156.181 353.118 156.181 355.017C156.181 356.913 154.412 362.266 155.232 363.085C156.051 363.904 179.468 363.802 179.468 363.031C179.468 362.261 175.329 359.927 169.706 358.32C164.082 356.714 162.17 350.491 163.631 346.917L155.743 348.813Z" fill="#F47458"/>
<path d="M179.845 363.085C179.845 362.365 176.005 360.163 171.032 358.643C165.732 360.431 158.372 358.957 155.613 358.431C154.768 360.636 154.499 362.728 154.933 363.16C155.753 363.979 179.845 363.856 179.845 363.085Z" fill="#13375B"/>
<path d="M130.327 276.865L126.128 280.587C126.128 280.587 121.4 293.377 121.125 294.22C120.742 295.394 105.428 344.7 105.428 344.7L116.097 348.538C116.097 348.538 126.675 327.946 128.428 320.794C130.181 313.644 147.71 283.724 147.71 283.724L130.327 276.865Z" fill="#86B1F2"/>
<path d="M148.877 284.453L153.99 349.804H165.822C165.822 349.804 170.058 300.895 168.597 283.723L148.877 284.453Z" fill="#86B1F2"/>
<path d="M85.4794 238.917C85.4794 238.917 89.0748 256.479 92.2307 259.632C94.027 261.427 98.9224 268.689 102.689 268.689C105.686 268.689 107.472 268.909 107.975 268.909C109.144 268.909 107.829 276.059 106.733 277.155C106.733 277.155 106.368 278.248 104.177 278.248C101.986 278.248 90.3729 270.295 86.8673 266.793C83.3614 263.291 76.8609 244.17 76.8609 244.17L85.4794 238.917Z" fill="#F7A491"/>
<path d="M143.183 216.88C143.183 216.88 138.655 222.133 132.666 231.037C126.677 239.937 111.371 264.655 109.733 266.29C109.336 266.688 108.095 267.486 108.095 267.486C108.095 267.486 105.945 267.024 104.789 267.448C103.659 267.864 102.137 270.05 102.673 270.588C103.208 271.122 105.274 269.333 105.905 269.352C106.537 269.374 106.592 269.371 106.592 269.712C106.592 270.05 104.036 271.463 103.305 271.657C102.575 271.853 100.65 274.807 101.017 275.793C101.384 276.776 101.358 277.106 102.283 277.106C103.208 277.106 103.354 277.837 104.133 277.837C104.912 277.837 105.107 276.862 105.984 277.251C106.86 277.641 107.104 277.544 109.83 275.889C112.557 274.235 117.645 268.082 120.201 265.528C122.757 262.973 146.105 237.555 146.105 237.555L143.183 216.88Z" fill="#F47458"/>
<path d="M153.088 177.743C153.088 177.743 147.513 175.723 143.91 181.366C140.307 187.009 142.254 186.475 140.501 189.295C138.748 192.117 134.172 191.535 134.172 195.912C134.172 200.29 136.217 200.973 136.217 200.973C136.217 200.973 134.367 204.378 136.411 207.88C138.456 211.383 143.556 214.399 147.823 213.913C147.823 213.913 154.232 217.423 160.659 215.766C167.087 214.106 164.847 214.106 167.476 214.106C170.106 214.106 177.215 210.507 176.046 205.254C176.046 205.254 180.378 200.11 176.175 195.912C171.972 191.712 171.177 187.447 168.742 181.804C166.308 176.161 156.01 176.379 153.088 177.743Z" fill="#184655"/>
<path d="M73.7911 214.891C74.6188 215.179 78.0042 217.588 79.976 221.383C81.948 225.175 87.1566 241.035 87.1566 241.035L78.5843 244.172L73.7911 214.891Z" fill="#59C8FF"/>
<path d="M30.654 345.654C30.654 345.654 29.2419 350.665 28.122 351.785C27.0021 352.903 23.2895 357.245 24.2024 359.397C25.1153 361.551 47.7386 364.634 48.5967 363.775C49.4547 362.918 44.6892 359.287 41.987 357.063C39.2846 354.836 37.3491 352.099 38.4811 348.78C39.6131 345.46 39.6131 345.788 39.6131 345.46C39.6131 345.13 30.654 345.654 30.654 345.654Z" fill="#F7A491"/>
<path d="M48.5968 363.769C49.6207 363.003 46.4422 359.574 41.8358 356.931C39.9076 356.928 37.3361 356.797 35.1581 356.254C31.7482 355.403 29.134 352.451 28.3584 351.492C28.288 351.591 22.8039 356.869 23.874 359.391C24.7867 361.545 46.5519 365.302 48.5968 363.769Z" fill="#355389"/>
<path d="M68.1911 348.083C68.1911 348.083 68.6088 353.229 67.7604 354.567C66.9118 355.902 63.9427 361.195 65.5975 362.85C67.0895 364.34 87.813 363.382 88.4633 362.358C89.1136 361.335 85.5671 358.279 82.444 356.697C79.3206 355.112 76.834 352.864 77.2141 349.375C77.594 345.889 77.6655 346.209 77.594 345.889C77.5222 345.57 68.1911 348.083 68.1911 348.083Z" fill="#F7A491"/>
<path d="M91.0377 363.182C92.1183 362.497 87.3417 358.181 82.2694 356.604C80.3869 357.02 77.849 357.455 75.6044 357.399C72.0907 357.31 68.8953 355.001 67.9292 354.235C67.8819 354.345 63.1612 361.178 65.277 362.921C66.9292 364.283 89.396 364.224 91.0377 363.182Z" fill="#355389"/>
<path d="M69.7041 275.209L56.324 313.943L40.9765 349.804L28.1219 346.575C28.1219 346.575 32.7612 321.718 37.119 313.911C40.4165 308.002 42.7189 274.097 42.7189 274.097L69.7041 275.209Z" fill="#FFB300"/>
<path d="M63.2791 281.727L67.9148 349.804H78.8704C78.8704 349.804 83.6553 278.48 81.9024 271.696C80.1497 264.909 61.8979 266.442 61.8979 266.442L63.2791 281.727Z" fill="#FF7700"/>
<path d="M73.7959 214.89C73.7959 214.89 59.6769 210.663 57.5027 210.937C55.1226 211.235 49.3382 214.296 49.3382 214.296C49.3382 214.296 49.6936 238.788 48.6713 245.712C47.6487 252.636 40.491 274.818 40.491 274.818C40.491 274.818 50.5702 280.657 67.5148 278.761C84.4593 276.862 83.2908 272.777 83.2908 272.777C83.2908 272.777 81.6838 248.258 80.0768 237.456C78.4701 226.656 73.7959 214.89 73.7959 214.89Z" fill="#4580FF"/>
<path d="M169.619 218.63C169.619 218.63 162.096 216.658 153.55 216.183C149.126 215.938 143.18 216.878 143.18 216.878C143.18 216.878 137.775 228.991 136.168 238.915C134.562 248.839 125.797 280.655 125.797 280.655C125.797 280.655 143.618 294.374 169.619 285.326V218.63Z" fill="#F7A491"/>
<path d="M149.364 207.781C149.364 207.781 149.598 215.532 148.87 216.257C148.141 216.985 147.124 218.193 148.195 220.041C149.267 221.889 153.917 220.71 156.083 219.652C158.163 218.636 159.505 216.746 159.505 216.746L158.421 204.474L149.364 207.781Z" fill="#F47458"/>
<path d="M152.453 210.994C153.946 210.471 156.555 209.463 158.569 206.195L158.418 204.476L149.361 207.782C149.361 207.782 149.418 209.673 149.388 211.674C150.657 211.623 151.74 211.244 152.453 210.994Z" fill="#B75742"/>
<path d="M27.0361 180.536C27.0361 180.536 26.2918 183.982 29.8893 185.193C33.4869 186.404 35.7197 173.76 37.7662 171.259C39.813 168.762 46.0156 168.079 49.2409 173.07C51.014 175.812 51.5686 177.007 51.7083 177.525C51.8231 177.95 51.6597 177.923 51.6597 177.923L50.6871 179.741C50.6871 179.741 47.5662 177.848 46.3877 181.304C45.2092 184.761 48.6825 190.417 45.7054 195.112C42.728 199.807 37.2702 196.487 37.2702 196.487C32.7423 199.527 27.5324 194.886 25.8579 190.495C24.1832 186.101 27.0361 180.536 27.0361 180.536Z" fill="#F7CC7F"/>
<path d="M62.5452 198.036L62.0538 203.12L57.5038 210.936C57.5038 210.936 66.4747 221.786 69.2446 219.195C69.8631 218.614 71.4244 207.13 71.4244 207.13L62.5452 198.036Z" fill="#F7A491"/>
<path d="M62.0493 203.12L61.0983 204.855C63.8958 207.363 67.4834 209.619 70.8751 210.917C71.1918 208.811 71.42 207.13 71.42 207.13L62.5407 198.036L62.0493 203.12Z" fill="#F48C7F"/>
<path d="M71.7813 181.346C71.7813 181.346 74.153 183.494 75.0245 184.708C80.2114 191.93 76.01 206.168 73.3022 207.352C69.202 209.146 63.8657 206.734 57.8518 202.66C51.8381 198.586 49.9375 191.987 55.444 186.247C60.9501 180.51 71.7813 181.346 71.7813 181.346Z" fill="#F7A491"/>
<path d="M51.826 180.072L53.4647 178.506C59.8883 178.506 65.0101 174.636 72.22 178.528C76.9786 181.095 75.0232 184.708 75.0232 184.708C57.402 184.708 63.7587 198.583 61.5993 204.104C59.4405 209.626 45.9663 197.685 51.826 180.072Z" fill="#F7CC7F"/>
<path d="M64.1515 195.699C64.1515 195.699 63.9026 191.147 61.108 192.049C58.3128 192.952 60.4908 199.814 62.8109 199.572C65.1308 199.33 64.1515 195.699 64.1515 195.699Z" fill="#F7A491"/>
<path d="M160.014 195.711C160.014 195.711 160.234 191.155 163.034 192.039C165.835 192.925 163.7 199.801 161.379 199.573C159.057 199.347 160.014 195.711 160.014 195.711Z" fill="#F47458"/>
<path d="M51.3693 176.64C51.3693 176.64 54.0239 178.284 55.0943 178.147C56.1647 178.01 53.4556 181.477 52.0193 181.837C50.583 182.197 51.0889 180.816 50.7854 180.344C50.4819 179.868 49.3645 180.239 49.1064 179.887C48.5188 179.092 50.115 176.79 51.3693 176.64Z" fill="#50BFA5"/>
<path d="M100.881 276.864C100.881 276.864 103.337 273.069 104.141 272.886C104.944 272.704 103.958 275.478 103.958 275.988C103.958 276.499 105.419 272.086 106.222 272.086C107.026 272.086 107.135 272.669 106.807 273.8C106.478 274.93 105.711 276.391 106.076 276.391C106.441 276.391 107.482 271.482 108.085 272.086C108.687 272.688 108.456 276.7 107.318 277.839C106.18 278.975 102.831 278.263 100.881 276.864Z" fill="#F7A491"/>
<path d="M137.706 239.099C138.117 238.664 139.313 236.961 141.348 237.635C143.111 238.221 143.805 240.036 144.305 240.856C144.162 240.028 143.828 238.605 144.218 236.991C145.257 232.696 150.518 233.083 150.424 237.066C150.386 238.629 149.823 239.585 149.03 241.261C149.354 240.907 150.322 239.736 151.653 239.051C155.536 237.052 157.622 241.924 154.875 244.508C153.455 245.846 151.648 245.881 150.545 246.01C151.502 246.278 152.075 246.359 153.011 246.952C157.864 250.025 151.113 258.321 147.465 250.334C147.46 250.326 147.441 250.326 147.429 250.32C147.596 251.451 147.917 252.834 147.451 254.435C146.189 258.77 140.418 258.007 141.419 253.1C141.732 251.566 142.752 249.942 142.814 249.815C142.119 250.557 141.093 251.789 139.609 252.367C135.788 253.86 133.966 248.47 137.486 246.198C139.062 245.18 140.626 245.327 141.178 245.18C139.872 244.865 138.643 244.5 137.751 243.407C136.544 241.927 137.192 240.466 137.153 240.267C137.338 239.878 137.522 239.488 137.706 239.099ZM144.547 247.465C145.543 247.984 146.8 247.318 147.309 246.356C148.013 245.029 147.569 243.662 146.572 243.195C145.532 242.709 144.334 243.176 143.699 244.438C143.11 245.609 143.51 247.027 144.547 247.465Z" fill="#F7CC7F"/>
<path d="M151.216 180.835C151.216 180.835 146.834 180.738 144.594 184.141C142.354 187.547 139.92 197.277 143.62 203.992C147.321 210.703 152.044 209.049 153.992 208.37C155.939 207.687 159.786 206.181 161.734 199.904C163.681 193.627 162.269 179.522 151.216 180.835Z" fill="#F47458"/>
<path d="M51.605 213.163C51.605 213.163 54.7805 212.685 57.505 222.985C60.5929 234.657 57.2682 246.746 52.1601 249.808C47.0521 252.87 44.9475 252.279 44.9475 252.279L45.7494 259.479C45.7494 259.479 60.841 256.103 62.8964 243.214C66.2649 222.091 56.3278 211.211 56.3278 211.211C56.3278 211.211 54.459 211.509 53.8787 211.745C53.2582 211.998 51.605 213.163 51.605 213.163Z" fill="#466EB6"/>
<path d="M43.7988 237.556C43.7988 237.556 43.7988 250.01 43.7988 252.637C43.7988 255.263 46.8176 273.049 50.5181 279.14C54.2186 285.231 59.2347 292.024 60.2729 292.413C61.3111 292.803 63.5675 294.231 64.7361 293.063C65.9046 291.895 66.8296 292.429 68.2906 291.798C69.7514 291.164 68.0957 289.075 66.0508 287.031C64.0057 284.987 63.5675 284.501 63.9084 284.16C64.249 283.819 65.9046 285.717 66.7812 285.425C67.6575 285.132 66.2457 282.067 63.9568 280.998C61.6686 279.927 58.0167 277.837 57.6759 276.717C57.335 275.597 57.335 275.89 57.335 275.597C57.335 275.307 54.7546 257.648 54.7546 254.192C54.7546 250.738 53.7321 239.5 53.7321 239.5L43.7988 237.556Z" fill="#F7A491"/>
<path d="M50.703 213.7C49.3751 213.866 45.7718 215.18 44.506 219.461C43.2401 223.742 39.9046 235.903 40.4888 241.839C40.4888 241.839 54.7068 243.687 54.7068 243.104C54.7068 242.518 57.817 227.293 56.2648 220.627C54.9111 214.815 53.0113 213.413 50.703 213.7Z" fill="#59C8FF"/>
<path d="M71.5852 214.241L81.4691 249.731C81.0333 245.095 80.5551 240.669 80.0769 237.454C78.4702 226.654 73.796 214.888 73.796 214.888C73.796 214.888 72.9261 214.628 71.5852 214.241Z" fill="#466EB6"/>
<path d="M129.2 285.782H156.55V248.267L129.2 249.728V285.782Z" fill="#357E84"/>
<path d="M129.2 246.801H155.335C156.006 246.801 156.55 247.457 156.55 248.265C156.55 249.071 156.006 249.726 155.335 249.726H129.2L129.223 249.718C131.028 248.902 131.018 247.613 129.2 246.801Z" fill="#3C8F7C"/>
<path d="M129.945 247.236H154.433C154.906 247.236 155.289 247.698 155.289 248.268C155.289 248.834 154.906 249.296 154.433 249.296H129.946C130.775 248.66 130.774 247.873 129.945 247.236Z" fill="#FAE0B2"/>
<path d="M169.619 218.632C169.619 218.632 167.571 220.681 165.38 228.457C163.189 236.232 162.072 254.436 160.173 256.333C158.274 258.231 145.858 268.107 143.618 267.766C141.378 267.425 136.363 261.589 134.805 261.589C133.247 261.589 133.442 262.999 134.221 263.777C135 264.554 135.949 265.456 135.487 265.918C135.024 266.38 135.024 266.38 135.024 266.38C135.024 266.38 128.086 264.554 126.917 265.236C125.749 265.918 128.037 267.521 128.037 268.69C128.037 269.858 127.751 269.837 127.891 271.123C128.031 272.41 128.353 273.433 128.962 274.043C129.571 274.65 137.239 276.863 144.738 275.842C152.236 274.819 161.39 271.22 168.158 262.851C174.926 254.485 173.571 228.185 173.417 225.564C173.027 218.922 169.619 218.632 169.619 218.632Z" fill="#F47458"/>
<path d="M543.98 76.0176L549.672 74.8862L551.058 69.1439L557.53 68.3282L557.115 61.751L564.393 60.5045L564.758 54.4029L571.559 52.0634L572.454 54.633L567.372 56.3856L566.984 62.8209L559.99 64.0214L560.412 70.7067L553.269 71.6079L551.918 77.2157L546.64 78.2646L546.525 82.1349L543.799 82.0448L543.98 76.0176Z" fill="#50BFA5"/>
<path d="M511.566 123.291L514.958 117.087L511.764 110.778C511.404 110.059 512.02 109.236 512.813 109.385L519.767 110.691L524.788 105.709C525.357 105.141 526.331 105.475 526.435 106.274L527.34 113.284L533.638 116.514C534.351 116.882 534.337 117.911 533.605 118.256L527.21 121.283L526.086 128.261C525.956 129.056 524.968 129.358 524.417 128.773L519.561 123.632L512.568 124.716C511.775 124.839 511.18 123.997 511.566 123.291Z" fill="#F47458"/>
<path d="M54.7648 103.496L58.9339 97.7861L56.5885 91.1173C56.3213 90.3572 57.042 89.6213 57.8081 89.8711L64.5331 92.0681L70.1567 87.7762C70.797 87.2901 71.7204 87.7466 71.7191 88.5524L71.7062 95.6214L77.5274 99.6393C78.19 100.096 78.04 101.114 77.2734 101.364L70.5403 103.534L68.5143 110.307C68.2836 111.078 67.2678 111.25 66.7952 110.597L62.6471 104.871L55.5734 105.04C54.7681 105.059 54.2901 104.146 54.7648 103.496Z" fill="#F7CC7F"/>
<path d="M187.246 58.9696C186.974 55.0483 189.934 51.6482 193.859 51.3769C197.783 51.1056 201.185 54.0627 201.458 57.9839C201.73 61.9052 198.77 65.3027 194.845 65.5766C190.921 65.8479 187.519 62.8908 187.246 58.9696Z" fill="#F7CC7F"/>
<path d="M199.328 79.0626C198.903 76.9999 198.645 74.7895 197.941 72.7994C197.334 71.0885 194.662 71.6123 194.797 73.4493C194.963 75.7 195.666 77.9802 196.138 80.1853C196.33 81.077 197.512 81.4933 198.294 81.2193C199.251 80.8836 199.513 79.9624 199.328 79.0626Z" fill="#F7CC7F"/>
<path d="M211.533 70.2488C209.172 68.8575 207.114 67.1333 204.936 65.4896C203.234 64.2058 201.399 66.4162 202.799 67.9417C204.809 70.136 207.448 71.8495 209.996 73.3509C210.802 73.8262 211.923 73.3616 212.317 72.5666C212.758 71.6776 212.341 70.7242 211.533 70.2488Z" fill="#F7CC7F"/>
<path d="M207.065 57.5076C206.531 57.9373 206.424 58.5524 206.754 59.1513C207.552 60.5963 209.579 60.5264 211.018 60.4781C212.52 60.4244 214.022 60.1209 215.442 59.6374C217.542 58.9203 216.402 55.6652 214.296 56.385C210.176 57.7896 208.616 56.2641 207.065 57.5076Z" fill="#F7CC7F"/>
<path d="M204.796 43.6718C202.723 46.7014 201.029 47.7246 201.292 49.3925C201.446 50.3675 202.218 50.8348 203.16 50.6199C204.274 50.3675 204.881 49.1884 205.548 48.3612C206.188 47.5662 206.816 46.7712 207.388 45.9252C207.907 45.157 207.979 44.1633 207.219 43.5026C206.582 42.9493 205.322 42.901 204.796 43.6718Z" fill="#F7CC7F"/>
<path d="M196.716 43.1445C196.053 41.3102 195.907 40.6414 195.048 39.7873C194.3 39.046 192.723 39.5187 192.618 40.6118C192.497 41.8876 192.764 42.3603 193.461 44.2914C193.776 45.1642 194.777 45.6531 195.661 45.3442C196.537 45.038 197.033 44.0255 196.716 43.1445Z" fill="#F7CC7F"/>
<path d="M187.995 47.5854C185.006 45.3186 184.398 44.6793 183.224 44.8029C182.536 44.8754 181.763 45.5361 181.913 46.3069C182.193 47.7411 183.028 48.1305 185.776 50.1341C186.513 50.6713 187.525 50.6981 188.16 49.9676C188.729 49.315 188.725 48.1413 187.995 47.5854Z" fill="#F7CC7F"/>
<path d="M175.991 57.9888C174.813 58.612 175.287 60.6478 176.562 60.8143C177.785 60.9728 178.257 60.7767 184.19 59.6943C185.106 59.5278 185.861 58.8591 185.791 57.8573C185.732 57.0059 184.874 56.09 183.951 56.2565C177.789 57.3684 177.173 57.3631 175.991 57.9888Z" fill="#F7CC7F"/>
<path d="M185.284 67.6877C182.033 70.8301 181.557 70.2768 180.272 72.1972C179.685 73.0781 180.654 74.4801 181.676 74.2921C182.988 74.0503 183.341 73.8301 185.051 72.4765C186.045 71.6895 186.995 70.8462 187.908 69.9679C188.585 69.3153 188.402 68.0933 187.738 67.5158C186.978 66.8551 185.961 67.0324 185.284 67.6877Z" fill="#F7CC7F"/>
<path d="M131.622 60.5469L137.277 56.8002L135.062 52.2961L140.514 48.4098L139.037 43.7258L142.755 40.2826L141.295 38.8699L136.323 43.476L137.723 47.9129L132.051 51.9577L134.23 56.3893L129.105 59.7814L131.622 60.5469Z" fill="#86B1F2"/>
<path d="M583.065 95.8872L576.456 94.3613L574.708 99.0662L568.134 97.7873L565.744 102.079L560.687 101.751L560.664 103.782L567.43 104.219L569.69 100.152L576.534 101.483L578.251 96.8554L584.242 98.2378L583.065 95.8872Z" fill="#F7CC7F"/>
<path d="M123.467 97.8347C123.467 97.8347 125.541 95.5142 129.164 95.8633C132.393 96.1749 134.372 98.9547 134.083 101.941C133.749 105.398 130.319 109.196 122.099 111.991C114.565 107.678 111.926 103.292 112.26 99.8356C112.549 96.849 115.022 94.499 118.252 94.8105C121.875 95.1597 123.467 97.8347 123.467 97.8347Z" fill="#F48C7F"/>
<path d="M96.634 96.6196C99.7222 97.4307 102.246 97.9276 104.749 98.2982C105.575 98.419 106.97 98.8756 107.647 98.2525C107.998 97.9275 108.111 97.4871 107.835 97.0654C107.328 96.2892 106.045 96.3752 105.213 96.2516C102.678 95.8756 99.827 95.3304 96.9776 94.6106C96.4437 94.4763 95.8883 94.9302 95.8004 95.4432C95.7004 96.026 96.0996 96.4799 96.634 96.6196Z" fill="#F48C7F"/>
<path d="M137.985 109.413C139.195 109.615 140.408 109.792 141.621 109.974C142.781 110.146 144.122 110.555 145.28 110.324C146.134 110.154 146.37 109.088 145.562 108.656C144.518 108.094 143.136 108.094 141.972 107.923C140.758 107.745 139.545 107.565 138.329 107.404C137.03 107.235 136.685 109.198 137.985 109.413Z" fill="#F48C7F"/>
<path d="M105.43 114.163C107.337 111.843 109.309 111.335 110.873 110.57C111.709 110.161 111.459 108.98 110.51 108.985C107.908 109.001 105.408 110.951 103.854 112.885C103.035 113.9 104.598 115.176 105.43 114.163Z" fill="#F48C7F"/>
<path d="M118.44 122.675C118.581 121.416 118.957 120.22 119.595 119.125C119.986 118.453 121.733 116.678 120.366 116.09C119.079 115.534 118.022 117.629 117.561 118.51C116.943 119.691 116.557 121.005 116.42 122.329C116.286 123.631 118.291 123.986 118.44 122.675Z" fill="#F48C7F"/>
<path d="M129.877 116.611C130.476 117.202 131.076 117.793 131.675 118.384C132.273 118.975 132.809 119.783 133.724 119.735C134.239 119.711 134.51 119.24 134.522 118.781C134.542 117.946 133.541 117.299 132.992 116.764C132.39 116.176 131.787 115.591 131.184 115.002C130.783 114.613 130.056 114.747 129.726 115.153C129.344 115.623 129.476 116.216 129.877 116.611Z" fill="#F48C7F"/>
<path d="M116.262 89.1407C114.631 82.5605 114.686 82.539 114.244 81.9482C113.791 81.3465 112.762 81.5533 112.642 82.3242C112.523 83.0869 112.556 82.9634 114.298 89.8793C114.436 90.4272 115.161 90.6743 115.649 90.4916C116.231 90.2714 116.399 89.694 116.262 89.1407Z" fill="#F48C7F"/>
<path d="M127.33 90.7575C127.89 89.7906 128.34 88.7754 128.682 87.7118C129 86.7234 129.62 85.2516 128.786 84.4029C128.606 84.2203 128.227 84.1666 128 84.274C127.05 84.7279 127.019 86.1353 126.722 87.0457C126.398 88.0368 125.968 88.9956 125.48 89.9195C125.224 90.4057 125.507 91.0449 125.985 91.2624C126.526 91.5095 127.054 91.2329 127.33 90.7575Z" fill="#F48C7F"/>
<path d="M142.784 94.1443C143.037 93.7012 142.725 93.1989 142.344 92.976C141.559 92.5167 140.339 93.1613 139.575 93.4675C138.684 93.8247 137.836 94.2679 137.015 94.762C136.541 95.0494 136.483 95.7719 136.788 96.1935C137.145 96.685 137.734 96.6877 138.219 96.4192C141.388 94.6573 142.161 95.2401 142.784 94.1443Z" fill="#F48C7F"/>
<path d="M227.111 98.4481L222.899 108.052L212.211 107.856L212.261 105.063L221.084 105.222L225.436 95.3004L237.372 97.4732L239.45 90.5224L242.065 91.5456L239.334 100.675L227.111 98.4481Z" fill="#F7CC7F"/>
<path d="M285.497 28.5463C284.761 34.3396 290.801 38.9376 296.172 38.575C302.107 38.1748 307.145 33.3082 308.013 27.4801C308.954 21.1685 305.159 16.1246 299.288 15.6599C293.573 15.2114 289.917 20.2929 291.567 25.4227C292.753 29.0996 296.11 30.4693 297.804 29.4541C299.121 28.6645 299.043 26.669 297.446 26.3171C296.806 26.1775 296.145 26.532 295.806 27.0235C294.409 26.4702 293.078 23.9268 293.981 21.1819C295.134 17.6743 299.57 17.4755 302.328 19.1111C305.833 21.1926 306.387 25.6752 305.099 29.2473C303.75 32.9967 300.062 35.951 296.048 36.2357C291.503 36.558 287.5 33.0772 287.137 28.5517C287.051 27.4827 285.629 27.5096 285.497 28.5463Z" fill="#86B1F2"/>
<path d="M485.345 87.5176C484.776 81.7031 477.869 78.5565 472.71 80.0984C467.013 81.8022 463.18 87.6596 463.622 93.5368C464.105 99.8994 468.923 103.98 474.75 103.132C480.424 102.306 482.863 96.5415 480.116 91.9057C478.147 88.5808 474.568 87.9898 473.143 89.3534C472.03 90.4166 472.552 92.3416 474.188 92.3317C474.842 92.3284 475.407 91.8364 475.629 91.2817C477.112 91.5128 478.973 93.6986 478.702 96.5745C478.355 100.249 474.072 101.428 471.022 100.441C467.142 99.1895 465.612 94.9368 466.075 91.1694C466.56 87.2138 469.498 83.5158 473.352 82.3536C477.714 81.0328 482.387 83.5422 483.742 87.8742C484.066 88.8978 485.447 88.5577 485.345 87.5176Z" fill="#86B1F2"/>
<path d="M520.608 346.97C520.608 346.97 521.239 352.416 521.239 353.343C521.239 354.267 521.239 354.267 521.239 354.267L520.789 355.207L520.608 355.58L523.87 360.154C523.87 360.154 536.968 360.348 537.258 360.348C537.552 360.348 535.508 357.186 535.508 357.186C535.508 357.186 531.173 353.926 530.394 351.64C529.618 349.352 531.057 344.585 531.057 344.585L520.608 346.97Z" fill="#F7A491"/>
<path d="M457.474 314.37C457.474 314.37 452.809 317.262 452.085 317.837C451.361 318.412 451.361 318.412 451.361 318.412L450.904 319.349L450.725 319.723L445.111 320.013C445.111 320.013 436.814 309.885 436.635 309.656C436.454 309.428 439.02 310 439.02 310C439.02 310 444.255 310.706 446.533 309.895C448.811 309.082 453.416 304.551 453.416 304.551L457.474 314.37Z" fill="#F7A491"/>
<path d="M499.868 263.25L449.621 306.009L457.361 316.957C457.361 316.957 509 284.921 511.701 284.558C514.402 284.193 516.594 285.434 517.107 287.402C517.616 289.374 518.917 348.491 518.917 348.491H532.331L539.329 274.062L499.868 263.25Z" fill="#357E84"/>
<path d="M572.259 202.258C575.98 199.822 584.711 190.459 587.672 187.271C587.701 186.898 587.985 184.73 590.362 181.98C592.042 180.035 593.316 175.6 594.419 176.857C595.519 178.114 592.784 181.638 594.038 181.661C595.291 181.684 601.503 174.706 602.501 175.845C603.499 176.984 597.19 183.188 598.31 183.208C599.429 183.229 604.554 176.946 605.965 178.557C607.377 180.168 599.251 185.391 600.01 186.256C600.764 187.118 605.799 183.695 606.939 184.991C608.075 186.288 599.835 189.342 600.492 189.355C601.154 189.366 605.905 189.237 605.941 190.153C605.982 191.187 593.916 192.796 592.439 194.585C589.283 199.599 583.676 208.76 577.992 212.778C571.038 217.696 554.968 228.13 554.968 228.13L546.988 217.825C546.988 217.825 567.854 205.145 572.259 202.258Z" fill="#F7A491"/>
<path d="M594.033 183.88C594.343 184.489 594.478 185.152 594.518 185.818C594.494 185.925 594.788 188.08 592.952 189.718C593.667 188.386 594.455 186.906 594.033 183.88Z" fill="#F48C7F"/>
<path d="M498.6 190.987C495.648 187.664 489.671 176.346 487.649 172.496C487.716 172.126 488.011 169.962 486.435 166.684C485.322 164.369 485.255 159.756 483.862 160.681C482.468 161.607 484.188 165.722 482.97 165.417C481.759 165.112 477.586 156.753 476.322 157.592C475.058 158.431 479.527 166.067 478.442 165.795C477.354 165.522 474.054 158.119 472.271 159.305C470.488 160.491 476.964 167.655 476.006 168.291C475.048 168.927 471.085 164.307 469.649 165.262C468.214 166.216 475.364 171.316 474.725 171.156C474.086 170.995 469.53 169.63 469.26 170.503C468.951 171.49 480.173 176.196 481.131 178.309C482.861 183.973 485.88 194.282 490.313 199.646C495.736 206.21 508.516 220.477 508.516 220.477L518.92 212.615C518.92 212.615 502.096 194.927 498.6 190.987Z" fill="#F7A491"/>
<path d="M482.39 167.559C481.933 168.067 481.631 168.67 481.414 169.303C481.407 169.413 480.563 171.415 481.91 173.475C481.568 172.003 481.191 170.368 482.39 167.559Z" fill="#F48C7F"/>
<path d="M520.804 214.452C522.32 212.196 524.926 210.914 527.638 211.1C535.618 211.642 551.797 212.918 553.332 214.452C555.376 216.495 561.512 229.825 555.666 248.507C549.828 267.187 546.611 265.243 541.841 265.243C537.07 265.243 514.573 254.636 514.573 254.636L520.804 214.452Z" fill="#355389"/>
<path d="M507.022 198.597L497.642 210.825L509.284 228.135C509.284 228.135 508.191 240.995 506.51 245.01C504.833 249.023 495.117 265.513 495.117 265.513C495.117 265.513 518.709 279.963 541.786 277.846C541.786 277.846 548.289 244.424 550.111 241.215C551.938 238.003 569.543 222.095 569.543 222.095L560.996 208.303L546.241 216.476C546.241 216.476 519.279 212.123 517.98 210.825C516.677 209.528 507.022 198.597 507.022 198.597Z" fill="#FE4C4C"/>
<path d="M537.454 173.587C537.454 173.587 528.351 168.771 525.234 176.749C525.234 176.749 517.054 175.922 518.466 184.388C518.466 184.388 510.234 188.522 515.447 199.176C515.447 199.176 513.16 209.197 524.892 209.831C524.892 209.831 526.646 213.382 532.001 212.554C537.36 211.727 538.72 210.317 538.72 210.317C538.72 210.317 548.218 213.089 551.091 204.526C551.091 204.526 557.614 202.971 553.231 194.602C553.231 194.602 558.929 183.754 548.898 180.495C548.898 180.495 547.73 169.404 537.454 173.587Z" fill="#AD3D3D"/>
<path d="M541.14 197.089C540.4 199.152 540.93 201.228 542.325 201.727C543.721 202.227 545.451 200.959 546.191 198.896C546.931 196.834 546.397 194.758 545.002 194.258C543.61 193.759 541.876 195.026 541.14 197.089Z" fill="#F7A491"/>
<path d="M516.575 192.028C516.473 194.217 517.592 196.049 519.07 196.119C520.549 196.189 521.834 194.472 521.94 192.283C522.042 190.094 520.927 188.263 519.444 188.193C517.966 188.123 516.678 189.839 516.575 192.028Z" fill="#F7A491"/>
<path d="M526.987 206.524C526.987 206.666 525.805 211.748 525.178 214.431C524.943 215.433 525.45 216.458 526.385 216.885C528.891 218.027 533.814 219.62 537.218 216.542C537.526 216.26 537.693 215.854 537.678 215.435L537.261 203.314L526.987 206.524Z" fill="#F7A491"/>
<path d="M526.355 209.368C529.001 210.703 532.334 210.73 536.074 208.541C536.545 208.262 536.99 207.969 537.411 207.657L537.259 203.315L526.99 206.524C526.99 206.594 526.711 207.819 526.355 209.368Z" fill="#F48C7F"/>
<path d="M534.274 178.538C534.274 178.538 538.759 179.721 541.392 184.08C544.026 188.439 545.48 201.038 536.07 206.549C526.663 212.06 519.82 203.525 519.997 195.452C520.173 187.378 523.765 177.058 534.274 178.538Z" fill="#F7A491"/>
<path d="M518.925 211.241C514.593 214.513 510.06 231.285 508.34 235.663L506.961 243.704L524.586 212.598C524.586 212.598 519.857 210.535 518.925 211.241Z" fill="#466EB6"/>
<path d="M540.322 215.486C540.322 215.486 539.794 236.15 541.353 243.252C542.912 250.355 546.987 252.837 546.987 252.837L548.993 244.573C548.993 244.573 546.987 226.323 546.245 216.471C546.138 214.976 540.322 215.486 540.322 215.486Z" fill="#466EB6"/>
<path d="M518.221 363.504C516.222 363.249 519.677 356.32 520.789 355.211L535.506 357.19C535.506 357.19 542.594 360.472 544.274 362.151C544.67 362.549 544.725 363.247 542.993 363.504C537.44 364.329 522.66 364.066 518.221 363.504Z" fill="#13375B"/>
<path d="M445.858 326.619C447.584 327.656 450.729 320.907 450.906 319.346L439.02 309.997C439.02 309.997 429.853 307.37 428.003 309.218C426.321 310.897 441.933 324.264 445.858 326.619Z" fill="#13375B"/>
<path d="M268.777 53.2503L260.232 64.2459L278.638 67.4796L268.777 53.2503Z" fill="#96D9C9"/>
<path d="M381.352 0.851612L402.532 29.8949L416.557 14.5727L381.352 0.851612Z" fill="#466EB6"/>
<path d="M418.46 6.54635L416.562 14.5752L381.359 0.856485L418.46 6.54635Z" fill="#9BC1F9"/>
<path d="M416.557 17.6366L381.352 0.851612L414.072 29.8949L416.557 17.6366Z" fill="#9BC1F9"/>
<path d="M414.733 32.0799C414.733 32.0829 414.733 32.0859 414.733 32.092C414.733 32.0889 414.733 32.0829 414.733 32.0799ZM437.941 52.4464C437.681 52.4223 431.496 51.7856 423.653 46.9067C415.78 42.0097 412.836 33.4618 412.836 32.092C412.836 31.5669 413.259 31.1415 413.784 31.1415C414.304 31.1415 414.723 31.5579 414.733 32.0739C414.817 32.9881 417.336 40.7394 424.656 45.2955C432.091 49.921 438.061 50.5516 438.122 50.5576C438.644 50.6089 439.028 51.0705 438.976 51.5925C438.925 52.1145 438.463 52.4947 437.941 52.4464Z" fill="#F7CC7F"/>
<path d="M476.419 61.0342C465.443 58.8363 454.948 54.7878 445.216 49.0023C437.202 44.2357 430.739 36.9704 422.565 32.9386C422.093 32.7081 421.903 32.1369 422.134 31.6693C422.368 31.1983 422.936 31.0046 423.407 31.2384C431.869 35.4138 438.282 42.669 446.189 47.3722C455.734 53.0475 466.031 57.0191 476.793 59.1736C480.748 59.9686 485.436 60.2559 490.725 60.0388C491.25 60.0154 491.691 60.4229 491.714 60.9473C491.734 61.4684 491.33 61.9127 490.805 61.9327C486.104 62.1298 481.049 61.9628 476.419 61.0342Z" fill="#F7CC7F"/>
<path d="M219.836 214.664C220.309 214.632 223.887 220.403 226.129 229.259C228.368 238.111 233.139 254.457 233.139 254.457C233.139 254.457 240.881 270.074 242.975 272.167C245.069 274.259 247.099 272.094 249.207 272.749C249.857 272.951 251.868 274.697 251.868 274.697C251.868 274.697 255.489 282.528 254.954 283.063C254.416 283.597 248.817 285.107 244.922 283.842C241.026 282.577 222.914 261.367 222.914 261.367C222.914 261.367 208.149 215.448 219.836 214.664Z" fill="#F48C7F"/>
<path d="M290.592 221.71L288.839 219.895C288.839 219.895 285.627 225.661 281.925 233.831C278.226 242.004 273.794 252.076 272.286 253.582C270.775 255.092 258.068 272.555 254.221 274.258C250.374 275.96 251.565 275.214 248.474 274.843C246.157 274.566 246.409 276.242 247.917 277.021C248.326 277.231 248.788 277.37 249.713 278.026C251.552 279.328 253.124 281.179 254.278 282.258C254.724 282.675 253.791 283.438 253.267 282.916C252.729 282.377 250.896 279.549 250.13 279.549C249.364 279.549 249.874 281.482 250.202 282.103C250.533 282.723 249.802 282.54 249.146 281.01C248.487 279.476 248.012 277.945 247.063 278.163C246.297 278.34 246.767 280.459 246.977 281.275C246.756 280.499 246.149 278.566 245.565 278.566C244.834 278.566 244.506 278.638 244.506 280.078C244.506 281.52 245.017 283.064 246.697 284.335C248.377 285.605 253.081 284.759 255.014 283.988C256.334 283.464 257.649 281.321 258.971 280.607C264.88 277.424 270.95 273.621 278.468 263.606C287.67 251.345 291.261 240.401 291.261 240.401L290.592 221.71Z" fill="#F4C0B8"/>
<path d="M287.182 360.803C287.182 360.803 286.209 356.718 287.182 351.755C288.158 346.792 293.416 321.494 293.416 316.241C293.416 310.988 295.948 303.301 295.948 303.301L280.465 299.409L278.906 314.49C278.906 314.49 278.078 349.663 276.666 351.073C275.255 352.486 269.285 354.567 267.414 354.567C265.322 354.567 262.01 354.709 262.01 355.762C262.01 356.815 262.303 357.495 262.303 357.495L287.182 360.803Z" fill="#F4C0B8"/>
<path d="M305.621 301.082L307.538 314.1C307.538 314.1 312.095 352.255 311.043 353.305C309.992 354.355 305.218 357.427 303.025 357.672C300.834 357.913 297.75 359.393 297.75 360.559C297.75 362.92 322.388 361.005 322.388 361.005C322.388 361.005 323.167 359.246 322.388 356.667C321.608 354.089 321.608 350.442 321.608 349.856C321.608 349.273 321.659 349.759 321.659 348.836C321.659 347.912 321.659 347.619 321.659 347.619C321.659 347.619 324.627 329.425 321.463 317.944L320.342 295.662L305.621 301.082Z" fill="#F4C0B8"/>
<path d="M203.165 173.777C203.165 173.777 197.468 173.71 193.525 175.931C189.594 178.147 188.539 183.433 188.465 187.563C188.37 192.897 190.122 198.269 193.451 202.456C196.786 206.646 202.654 208.531 202.654 208.531L219.168 198.014C219.168 198.014 221.133 193.115 219.746 186.548C218.356 179.979 218.721 172.754 203.165 173.777Z" fill="#184655"/>
<path d="M230.998 343.861C230.998 343.861 236.45 351.693 236.839 352.762C237.229 353.834 239.907 360.938 239.907 360.938L260.845 350.769L244.826 345.905L241.614 338.898L230.998 343.861Z" fill="#F48C7F"/>
<path d="M203.535 288.418L220.627 324.026L231.874 346.503C231.874 346.503 241.855 342.66 244.339 340.178L236.256 311.865L227.054 279.077L207.707 277.317L203.535 288.418Z" fill="#355389"/>
<path d="M187.42 347.478C187.42 347.478 188.199 352.731 188.199 353.072C188.199 353.413 187.03 358.471 186.835 359.835C186.641 361.197 186.835 362.266 186.835 362.266L206.677 357.523C206.677 357.523 203.731 355.602 201.102 354.141C198.473 352.683 198.083 345.727 198.083 345.727L187.42 347.478Z" fill="#F48C7F"/>
<path d="M184.641 279.077C184.641 279.077 188.039 300.437 187.562 307.584C186.877 317.846 184.154 321.789 186.101 348.701H199.93C199.93 348.701 200.904 334.243 203.046 323.054C205.188 311.865 209.863 293.086 209.863 293.086L217.557 275.763L184.641 279.077Z" fill="#355389"/>
<path d="M192.645 198.77C193.313 200.857 194.998 202.184 196.41 201.733C197.822 201.284 198.426 199.227 197.759 197.14C197.092 195.05 195.406 193.724 193.994 194.175C192.582 194.626 191.978 196.683 192.645 198.77Z" fill="#F48C7F"/>
<path d="M216.127 194.317C216.312 196.501 217.659 198.169 219.137 198.042C220.613 197.919 221.662 196.047 221.476 193.863C221.291 191.68 219.941 190.012 218.465 190.136C216.987 190.262 215.941 192.134 216.127 194.317Z" fill="#F48C7F"/>
<path d="M419.09 200.994C422.213 197.615 428.793 183.548 431.019 179.552C430.973 179.152 430.793 176.823 432.543 173.413C433.78 171.003 434.095 166.078 435.437 167.146C436.776 168.215 434.841 172.513 436.068 172.257C437.299 172.001 441.912 163.31 443.127 164.279C444.342 165.247 439.472 173.15 440.57 172.92C441.671 172.692 445.363 164.973 447.082 166.342C448.798 167.711 441.946 174.993 442.87 175.728C443.792 176.463 447.997 171.754 449.382 172.856C450.764 173.958 443.347 178.997 443.996 178.862C444.639 178.728 449.265 177.53 449.49 178.478C449.744 179.55 438.282 183.933 437.212 186.136C435.181 192.088 431.609 202.928 426.897 208.404C421.128 215.105 404.53 233.685 404.53 233.685L397.635 220.619C397.635 220.619 415.383 205.001 419.09 200.994Z" fill="#6B4744"/>
<path d="M436.531 174.577C436.959 175.145 437.227 175.807 437.411 176.495C437.411 176.614 438.147 178.801 436.693 180.925C437.116 179.371 437.577 177.646 436.531 174.577Z" fill="#4B2F2D"/>
<path d="M185.945 218.539C185.945 218.539 187.552 259.954 185.945 267.689C184.338 275.424 183.601 280.444 183.601 280.444C183.601 280.444 205.811 284.765 227.138 279.074C227.138 279.074 223.923 264.624 222.464 249.592C221.004 234.56 219.835 214.663 219.835 214.663C219.835 214.663 211.748 214.062 205.519 214.631C191.361 215.928 185.945 218.539 185.945 218.539Z" fill="#FAE0B2"/>
<path d="M199.152 204.136L198.527 215.467C198.527 215.467 199.591 221.72 205.799 222.085C212.007 222.45 210.181 209.097 210.181 209.097L209.816 204.136H199.152Z" fill="#F48C7F"/>
<path d="M209.978 212.667C210.128 212.667 210.276 212.665 210.423 212.657C210.389 210.634 210.178 209.093 210.178 209.093L209.813 204.132H199.149L199.055 205.832C200.393 208.107 204.33 212.667 209.978 212.667Z" fill="#F27A6A"/>
<path d="M187.209 355.662C187.209 355.662 187.94 354.931 190.496 355.149C193.052 355.369 205.87 356.792 206.418 356.792C206.966 356.792 214.3 362.355 214.629 363.365C214.957 364.374 198.786 363.714 198.786 363.714H186.473C186.473 363.714 185.311 360.04 187.209 355.662Z" fill="#357E84"/>
<path d="M238.009 355.391C238.009 355.391 237.259 355.893 237.259 356.575C237.259 357.026 238.022 360.102 238.907 362.291C239.42 363.566 240.936 364.103 242.143 363.44L264.35 351.206C264.35 351.206 265.968 349.804 255.495 349.144L238.009 355.391Z" fill="#357E84"/>
<path d="M185.945 218.54C185.945 218.54 182.79 219.918 180.94 224.199C179.09 228.48 173.149 247.842 177.142 259.42C177.142 259.42 178.941 268.222 188.192 274.257C197.444 280.289 213.575 281.739 214.488 280.826C215.401 279.913 215.438 278.331 215.438 277.316C215.438 276.301 217.557 275.79 217.557 274.404C217.557 273.019 213.977 272.774 209.863 272.774C209.863 272.774 209.132 272.702 210.033 272.019C210.934 271.34 212.078 270.489 211.883 269.199C211.689 267.91 210.849 267.969 210.057 268.762C209.266 269.551 206.649 271.681 204.555 271.071C202.462 270.464 190.094 260.32 188.049 257.111C188.049 257.111 188.866 219.23 185.945 218.54Z" fill="#F48C7F"/>
<path d="M288.842 219.896C288.842 219.896 295.509 216.2 302.584 215.373C309.659 214.543 319.81 217.197 319.81 217.197L325.665 301.635C325.665 301.635 299.372 314.113 279.651 301.635C279.651 301.635 284.947 266.183 284.947 261.198C284.947 256.213 284.947 256.213 284.947 256.213L288.842 219.896Z" fill="#FFB300"/>
<path d="M262.024 356.496C261.323 356.415 260.661 356.829 260.425 357.492C260.151 358.258 260.272 358.943 260.844 359.515C261.893 360.559 280.164 363.551 286.54 363.409C287.218 363.396 288.186 361.384 287.186 360.801C285.626 359.888 266.844 357.038 262.024 356.496Z" fill="#13375B"/>
<path d="M267.415 354.566L268.926 357.641L272.286 358.565C272.286 358.565 270.727 353.067 269.364 353.309C268.001 353.553 267.415 354.566 267.415 354.566Z" fill="#13375B"/>
<path d="M297.748 360.759C297.108 360.756 296.53 361.162 296.331 361.771C296.173 362.26 296.119 362.821 296.485 363.189C297.264 363.966 323.428 363.431 323.428 363.431C323.428 363.431 324.06 361.487 322.923 361.097C322.17 360.837 302.299 360.77 297.748 360.759Z" fill="#13375B"/>
<path d="M305.63 356.571C305.396 356.144 303.592 356.596 303.022 357.673L305.345 361.003L308.071 360.992L305.63 356.571Z" fill="#13375B"/>
<path d="M363.879 339.689C363.879 339.689 362.825 348.834 361.113 352.822C359.401 356.813 353.753 359.33 348.785 360.31C343.817 361.288 345.473 362.069 346.202 362.797C346.928 363.522 368.457 364.014 372.253 363.326C372.253 363.326 370.793 355.838 370.793 354.673C370.793 353.504 376.734 335.115 376.734 335.115L363.879 339.689Z" fill="#6B4744"/>
<path d="M372.252 363.328C372.252 363.328 371.956 361.805 371.628 360.025C367.475 360.581 357.975 359.608 353.214 359.055C351.757 359.606 349.986 359.77 348.529 360.057C343.563 361.035 343.934 362.337 345.182 363.242C346.012 363.847 368.456 364.016 372.252 363.328Z" fill="#F47458"/>
<path d="M406.23 337.55C406.23 337.55 405.65 348.79 406.854 352.827C408.095 356.987 409.876 357.701 414.751 359.058C419.54 360.387 417.721 362.517 416.993 363.245C416.265 363.97 399.51 364.018 395.713 363.331C395.713 363.331 397.175 355.843 397.175 354.677C397.175 353.509 395.4 334.609 395.4 334.609L406.23 337.55Z" fill="#6B4744"/>
<path d="M395.716 363.331C395.716 363.331 396.015 361.808 396.342 360.027C400.493 360.583 409.996 359.611 414.756 359.058C416.401 359.455 417.736 359.786 419.188 360.314C423.942 362.05 423.517 362.517 422.788 363.245C422.062 363.97 399.516 364.018 395.716 363.331Z" fill="#F47458"/>
<path d="M319.807 217.195C319.807 217.195 314.11 223.907 317.033 235.147C319.955 246.384 327.014 264.285 335.729 274.252C337.14 275.863 340.403 279.269 341.866 280.241C343.325 281.216 349.508 281.896 349.508 281.896C349.508 281.896 352.237 273.53 351.457 272.751C350.678 271.972 344.129 271.899 342.352 270.124C340.573 268.349 323.312 217.195 319.807 217.195Z" fill="#F4C0B8"/>
<path d="M374.91 217.047C374.91 217.047 373.268 218.071 372.101 221.087C370.932 224.103 364.87 248.914 363.994 252.513C363.316 255.293 357.168 263.455 354.117 267.387C353.217 268.547 352.526 269.514 352.088 269.514C349.41 269.514 344.964 270.999 344.964 272.109C344.964 273.215 346.015 273.333 347.768 272.947C349.521 272.557 348.193 274.453 347.561 275.085C346.927 275.718 344.23 279.325 345.187 280.279C346.142 281.232 348.437 281.896 349.507 281.896C350.091 281.896 351.271 281.831 353.429 280.072C355.244 278.592 357.913 275.565 359.873 273.82C366.916 267.546 372.709 254.361 373.781 251.345C374.851 248.329 374.91 217.047 374.91 217.047Z" fill="#6B4744"/>
<path d="M352.346 275.794C352.346 275.794 353.077 275.866 353.077 277.29C353.077 278.713 351.835 280.902 350.996 281.743C350.155 282.581 342.464 280.539 342.464 280.539C342.464 280.539 345.262 280.609 346.217 279.425C346.644 278.896 347.453 276.414 348.257 276.414C349.061 276.414 348.184 279.771 348.184 279.771C348.184 279.771 349.719 275.356 350.52 275.356C351.324 275.356 351.397 276.159 351.031 277.51C350.665 278.858 351.851 275.404 352.346 275.794Z" fill="#F4C0B8"/>
<path d="M358.525 340.597C358.525 340.597 369.92 343.662 382.845 343.662C395.771 343.662 421.188 337.095 421.188 337.095C421.188 337.095 414.177 320.166 411.767 307.178C409.354 294.19 407.605 271.863 407.605 271.863H369.035L366.625 287.319L358.525 340.597Z" fill="#466EB6"/>
<path d="M374.913 217.047C374.913 217.047 372.392 219.967 372.392 229.015C372.392 238.064 371.956 251.638 371.227 256.308C370.496 260.979 368.304 272.581 368.304 272.581C368.304 272.581 374.731 277.907 391.385 276.449C408.036 274.987 408.912 272.75 408.912 272.75C408.912 272.75 406.576 235.147 406.576 231.204C406.576 227.264 403.001 215.866 403.001 215.866C403.001 215.866 393.381 214.872 388.998 215.21C384.618 215.546 374.913 217.047 374.913 217.047Z" fill="#FAE0B2"/>
<path d="M367.34 181.533C367.34 181.533 360.333 183.52 360.913 190.707C361.451 197.333 364.71 196.997 364.71 196.997C364.71 196.997 362.325 206.392 369.531 209.118C376.326 211.685 378.878 209.118 378.878 209.118C378.878 209.118 381.828 216.917 391.906 213.907C401.986 210.896 401.084 204.788 401.084 204.788C401.084 204.788 405.375 206.475 410.345 198.595C415.309 190.712 412.475 185.037 405.904 181.533C405.904 181.533 408.092 171.5 398.04 169.895C387.993 168.289 385.527 173.799 385.527 173.799C385.527 173.799 383.739 167.648 373.038 171.881C366.024 174.653 367.34 181.533 367.34 181.533Z" fill="#13375B"/>
<path d="M395.112 196.572C394.371 198.635 394.903 200.711 396.299 201.21C397.695 201.71 399.425 200.445 400.166 198.379C400.907 196.32 400.375 194.241 398.979 193.741C397.584 193.242 395.853 194.509 395.112 196.572Z" fill="#6B4744"/>
<path d="M372.26 198.622C372.598 200.787 374.061 202.358 375.523 202.13C376.988 201.901 377.902 199.96 377.563 197.795C377.227 195.63 375.765 194.059 374.3 194.287C372.835 194.516 371.921 196.457 372.26 198.622Z" fill="#6B4744"/>
<path d="M384.271 208.101L384.662 216.612C384.662 216.612 384.857 219.921 388.313 220.359C391.772 220.796 394.937 218.124 394.937 215.446C394.937 215.105 393.232 203.43 393.232 203.43L384.271 208.101Z" fill="#6B4744"/>
<path d="M393.237 203.428L384.275 208.099L384.415 211.126C386.038 211.136 388.437 211.007 390.361 209.861C391.981 208.896 392.883 207.672 393.607 205.982C393.393 204.489 393.237 203.428 393.237 203.428Z" fill="#4B2F2D"/>
<path d="M247.917 274.617C247.917 274.617 250.1 276.028 251.396 275.719C252.692 275.407 252.054 274.746 251.444 274.139C250.837 273.53 249.205 272.751 249.205 272.751L247.917 274.617Z" fill="#F48C7F"/>
<path d="M204.781 179.725C201.244 180.246 198.657 182.749 196.777 185.805C193.052 191.862 196.081 200.778 197.104 202.82C198.126 204.864 202.216 210.117 208.278 210.117C214.34 210.117 218.577 204.571 219.087 199.172C219.773 191.942 217.835 182.931 210.948 180.42C209.071 179.735 206.848 179.418 204.781 179.725Z" fill="#F48C7F"/>
<path d="M302.35 179.909C302.35 179.909 299.356 179.764 295.996 181.367C292.635 182.973 289.13 190.192 289.13 196.614C289.13 200.522 287.399 202.133 286.044 202.8C285.316 203.154 285.119 204.099 285.654 204.706C286.98 206.21 288.359 207.865 290.098 208.875C296.689 212.705 303.326 212.823 310.732 211.464C316.692 210.373 322.315 207.693 326.541 203.299C327.337 202.472 327.119 201.107 326.108 200.565C324.711 199.813 323.06 198.196 322.434 194.723C321.267 188.226 318.856 176.772 302.35 179.909Z" fill="#13375B"/>
<path d="M311.282 197.626C310.806 199.767 311.594 201.763 313.04 202.082C314.489 202.404 316.048 200.93 316.524 198.792C317 196.651 316.212 194.659 314.763 194.336C313.317 194.014 311.758 195.489 311.282 197.626Z" fill="#F4C0B8"/>
<path d="M289.871 194.77C289.871 196.962 291.073 198.737 292.554 198.737C294.038 198.737 295.239 196.962 295.239 194.77C295.239 192.579 294.038 190.803 292.554 190.803C291.073 190.803 289.871 192.579 289.871 194.77Z" fill="#F4C0B8"/>
<path d="M298.969 208.878L298.238 218.898C298.238 218.898 298.579 221.184 301.305 221.67C304.034 222.156 309.827 218.119 309.827 215.979L308.464 204.4L298.969 208.878Z" fill="#F4C0B8"/>
<path d="M298.607 213.766C302.913 213.981 306.381 212.042 308.943 208.507L308.459 204.401L298.964 208.878L298.607 213.766Z" fill="#F7A491"/>
<path d="M292.274 199.899C292.932 203.618 294.026 210.169 299.87 210.843C305.712 211.517 310.096 208.362 312.87 202.67C315.647 196.979 314.989 189.462 313.454 185.742C312.236 182.785 306.975 182.924 304.392 182.97C295.731 183.115 290.819 191.656 292.274 199.899Z" fill="#F4C0B8"/>
<path d="M300.817 181.779C300.817 181.779 300.725 186.565 304.712 190.548C308.698 194.531 316.714 196.613 316.714 196.613L317.663 198.861C317.663 198.861 318.929 191.706 315.91 186.936C312.892 182.168 300.817 181.779 300.817 181.779Z" fill="#13375B"/>
<path d="M388.877 180.504C388.877 180.504 393.118 181.714 395.655 185.99C398.198 190.266 399.729 202.551 390.931 207.796C382.136 213.039 376.253 204.619 375.639 196.787C374.908 187.524 378.954 178.929 388.877 180.504Z" fill="#6B4744"/>
<path d="M669.885 335.967C669.885 335.967 674.064 352.987 677.175 355.659C680.287 358.331 690.438 363.442 687.783 363.993C685.128 364.544 665.469 365 666.007 361.724C666.545 358.447 667.111 356.36 667.111 356.36L661.91 344.201L669.885 335.967Z" fill="#F79C8D"/>
<path d="M689.103 364.689C684.308 365.164 670.308 365.669 666.231 365.148C666.231 365.148 665.468 364.998 666.003 361.721C666.135 360.921 666.268 360.19 666.396 359.545C670.093 360.515 678.152 358.45 681.342 358.026C684.811 359.685 688.719 362.162 689.981 362.369C691.805 362.666 691.8 364.42 689.103 364.689Z" fill="#13375B"/>
<path d="M624.04 350.232C624.04 350.232 623.603 354.538 623.603 356.437C623.603 358.333 625.372 363.683 624.552 364.502C623.732 365.321 600.314 365.222 600.314 364.451C600.314 363.68 604.457 361.344 610.081 359.74C615.701 358.134 617.612 351.911 616.155 348.336L624.04 350.232Z" fill="#F79C8D"/>
<path d="M599.938 364.506C599.938 363.789 603.776 361.584 608.75 360.067C614.049 361.856 621.409 360.378 624.169 359.852C625.014 362.059 625.284 364.149 624.847 364.584C624.027 365.403 599.938 365.277 599.938 364.506Z" fill="#13375B"/>
<path d="M649.459 278.286L653.655 282.008C653.655 282.008 658.386 294.795 658.659 295.641C659.043 296.815 674.358 346.121 674.358 346.121L663.689 349.956C663.689 349.956 653.11 329.367 651.356 322.215C649.606 315.063 632.078 285.145 632.078 285.145L649.459 278.286Z" fill="#FAE0B2"/>
<path d="M630.906 285.876L625.794 351.226H613.963C613.963 351.226 609.728 302.32 611.184 285.148L630.906 285.876Z" fill="#FAE0B2"/>
<path d="M610.169 220.05C610.169 220.05 617.688 218.082 626.236 217.606C630.661 217.362 636.605 218.3 636.605 218.3C636.605 218.3 642.011 230.413 643.617 240.336C645.226 250.263 653.99 282.079 653.99 282.079C653.99 282.079 636.167 295.795 610.169 286.75V220.05Z" fill="#357E84"/>
<path d="M630.419 209.208C630.419 209.208 630.184 216.956 630.912 217.684C631.644 218.412 632.658 219.618 631.589 221.468C630.516 223.316 625.866 222.137 623.699 221.079C621.621 220.063 620.274 218.173 620.274 218.173L621.364 205.899L630.419 209.208Z" fill="#F79C8D"/>
<path d="M627.329 212.417C625.836 211.893 623.223 210.886 621.21 207.615L621.365 205.896L630.42 209.205C630.42 209.205 630.366 211.096 630.395 213.097C629.125 213.043 628.042 212.664 627.329 212.417Z" fill="#B75742"/>
<path d="M619.765 197.136C619.765 197.136 619.542 192.581 616.743 193.465C613.944 194.348 616.077 201.224 618.401 200.999C620.721 200.773 619.765 197.136 619.765 197.136Z" fill="#F79C8D"/>
<path d="M628.574 182.256C628.574 182.256 632.953 182.159 635.194 185.564C637.431 188.97 639.867 198.7 636.164 205.412C632.469 212.126 627.745 210.472 625.793 209.79C623.85 209.111 620.002 207.601 618.054 201.327C616.107 195.05 617.518 180.943 628.574 182.256Z" fill="#F79C8D"/>
<path d="M610.999 219.849C613.002 224.355 617.915 234.059 617.69 244.762C617.452 255.972 609.013 263.248 609.013 263.248V268.789C609.013 268.789 618.327 267.323 621.887 252.838C625.447 238.354 616.878 218.675 616.878 218.675C616.878 218.675 615.658 217.805 613.235 218.479C611.619 218.93 610.999 219.849 610.999 219.849Z" fill="#355389"/>
<path d="M631.461 217.566C631.461 217.566 638.456 255.199 647.535 257.638L645.953 251.222C645.953 251.222 636.603 220.776 636.603 218.3C636.603 215.826 631.461 217.566 631.461 217.566Z" fill="#355389"/>
<path d="M650.395 281.965H623.239V251.046L650.395 252.252V281.965Z" fill="#4580FF"/>
<path d="M650.395 249.846H624.447C623.778 249.846 623.239 250.386 623.239 251.05C623.239 251.715 623.778 252.255 624.447 252.255H650.395L650.373 252.247C648.582 251.576 648.59 250.512 650.395 249.846Z" fill="#B75742"/>
<path d="M649.654 250.197H625.342C624.872 250.197 624.489 250.578 624.489 251.045C624.489 251.515 624.872 251.894 625.342 251.894H649.654C648.831 251.371 648.831 250.723 649.654 250.197Z" fill="#FAE0B2"/>
<path d="M638.491 250.374H636.781C636.411 250.374 636.119 250.673 636.119 251.04V251.1H638.491V250.374Z" fill="#13375B"/>
<path d="M636.854 250.375C637.261 250.375 637.873 250.721 638.215 251.146L642.274 256.171H644.655L640.797 251.39C640.348 250.829 639.538 250.372 639.003 250.375H636.854Z" fill="#355389"/>
<path d="M610.165 220.054C610.165 220.054 612.213 222.105 614.404 229.881C616.595 237.656 617.711 255.86 619.611 257.757C621.512 259.653 633.925 269.528 636.164 269.19C638.403 268.849 643.419 263.01 644.981 263.01C646.535 263.01 646.344 264.42 645.563 265.199C644.786 265.978 643.836 266.878 644.296 267.34C644.76 267.802 644.76 267.802 644.76 267.802C644.76 267.802 651.698 265.978 652.87 266.66C654.037 267.34 651.746 268.946 651.746 270.114C651.746 271.28 652.032 271.261 651.893 272.545C651.754 273.831 651.433 274.857 650.822 275.464C650.214 276.074 642.543 278.287 635.049 277.264C627.547 276.243 618.396 272.644 611.627 264.275C604.858 255.909 606.212 229.61 606.368 226.986C606.759 220.346 610.165 220.054 610.165 220.054Z" fill="#F79C8D"/>
<path d="M605.348 134.721C607.932 141.53 615.547 144.959 622.359 142.379C629.175 139.799 632.605 132.187 630.025 125.377C627.442 118.568 619.826 115.139 613.01 117.719C606.198 120.3 602.765 127.911 605.348 134.721Z" fill="#F7CC7F"/>
<path d="M625.025 129.507C626.405 133.148 624.571 137.217 620.927 138.597C617.282 139.977 613.213 138.143 611.833 134.502L625.025 129.507Z" fill="#EFEFEF"/>
</svg>
